<svg xmlns="http://www.w3.org/2000/svg" xmlns:xlink="http://www.w3.org/1999/xlink" contentStyleType="text/css" data-diagram-type="STATE" height="1062px" preserveAspectRatio="none" style="width:1075px;height:1062px;background:#FFFFFF;" version="1.1" viewBox="0 0 1075 1062" width="1075px" zoomAndPan="magnify"><defs/><g><g id="STANDBY"><rect fill="#F1F1F1" height="92.1719" rx="12.5" ry="12.5" style="stroke:#181818;stroke-width:0.5;" width="330.1484" x="368.91" y="137.53"/><line style="stroke:#181818;stroke-width:0.5;" x1="368.91" x2="699.0584" y1="163.8269" y2="163.8269"/><text fill="#000000" font-family="sans-serif" font-size="14" lengthAdjust="spacing" textLength="66.4248" x="500.7718" y="155.5251">STANDBY</text><text fill="#000000" font-family="sans-serif" font-size="12" lengthAdjust="spacing" textLength="229.5762" x="373.91" y="179.9655">eEnter / reset_machine(m), timer = 0;</text><text fill="#000000" font-family="sans-serif" font-size="12" lengthAdjust="spacing" textLength="223.8457" x="373.91" y="193.9343">eTick [timer % 20 = 0] / led_toggle();</text><text fill="#000000" font-family="sans-serif" font-size="12" lengthAdjust="spacing" textLength="310.1484" x="373.91" y="207.903">eTick [timer&gt;=600] / send_msg(EMPTY), timer = 0;</text><text fill="#000000" font-family="sans-serif" font-size="12" lengthAdjust="spacing" textLength="95.3086" x="373.91" y="221.8718">eExit / led_off();</text></g><g class="entity" data-entity="N1" data-source-line="9" data-uid="ent0003" id="entity_N1"><path d="M579.36,6 L579.36,76.5313 L908.6022,76.5313 L908.6022,16 L898.6022,6 L579.36,6" fill="#FEFFDD" style="stroke:#181818;stroke-width:0.5;"/><path d="M898.6022,6 L898.6022,16 L908.6022,16 L898.6022,6" fill="#FEFFDD" style="stroke:#181818;stroke-width:1;"/><text fill="#000000" font-family="sans-serif" font-size="13" lengthAdjust="spacing" textLength="216.9438" x="589.4923" y="23.0669">- struct Machine, jossa pill_count,</text><text fill="#000000" font-family="sans-serif" font-size="13" lengthAdjust="spacing" textLength="210.7104" x="589.4923" y="38.1997">sun muut yleiset tiedot stateille.</text><text fill="#000000" font-family="sans-serif" font-size="13" lengthAdjust="spacing" textLength="180.3687" x="589.4923" y="53.3325">- Olkoon 1 tick aluksi 50ms.</text><text fill="#000000" font-family="sans-serif" font-size="13" lengthAdjust="spacing" textLength="304.1099" x="589.4923" y="68.4653">- send_msg() on viestin l&#228;hetys LoRa verkkoon</text></g><g id="CHECK_CALIBRATION"><rect fill="#F1F1F1" height="78.2031" rx="12.5" ry="12.5" style="stroke:#181818;stroke-width:0.5;" width="169.4678" x="417.25" y="310.44"/><line style="stroke:#181818;stroke-width:0.5;" x1="417.25" x2="586.7178" y1="336.7369" y2="336.7369"/><text fill="#000000" font-family="sans-serif" font-size="14" lengthAdjust="spacing" textLength="149.4678" x="427.25" y="328.4351">CHECK_CALIBRATION</text><text fill="#000000" font-family="sans-serif" font-size="12" lengthAdjust="spacing" textLength="117.2813" x="422.25" y="352.8755">eEnter / calibrate();</text><text fill="#000000" font-family="sans-serif" font-size="12" lengthAdjust="spacing" textLength="39.4512" x="422.25" y="366.8443">eTick /</text><text fill="#000000" font-family="sans-serif" font-size="12" lengthAdjust="spacing" textLength="37.9629" x="422.25" y="380.813">eExit /</text></g><g id="CALIBRATED"><rect fill="#F1F1F1" height="78.2031" rx="12.5" ry="12.5" style="stroke:#181818;stroke-width:0.5;" width="277.332" x="363.32" y="469.37"/><line style="stroke:#181818;stroke-width:0.5;" x1="363.32" x2="640.652" y1="495.6669" y2="495.6669"/><text fill="#000000" font-family="sans-serif" font-size="14" lengthAdjust="spacing" textLength="88.3682" x="457.8019" y="487.3651">CALIBRATED</text><text fill="#000000" font-family="sans-serif" font-size="12" lengthAdjust="spacing" textLength="257.332" x="368.32" y="511.8055">eEnter / led_on(); send_msg(CALIBRATED);</text><text fill="#000000" font-family="sans-serif" font-size="12" lengthAdjust="spacing" textLength="39.4512" x="368.32" y="525.7743">eTick /</text><text fill="#000000" font-family="sans-serif" font-size="12" lengthAdjust="spacing" textLength="95.3086" x="368.32" y="539.743">eExit / led_off();</text></g><g id="DISPENSE_WAIT"><rect fill="#F1F1F1" height="92.1719" rx="12.5" ry="12.5" style="stroke:#181818;stroke-width:0.5;" width="291.3887" x="470.29" y="624.57"/><line style="stroke:#181818;stroke-width:0.5;" x1="470.29" x2="761.6787" y1="650.8669" y2="650.8669"/><text fill="#000000" font-family="sans-serif" font-size="14" lengthAdjust="spacing" textLength="112.3896" x="559.7895" y="642.5651">DISPENSE_WAIT</text><text fill="#000000" font-family="sans-serif" font-size="12" lengthAdjust="spacing" textLength="194.4258" x="475.29" y="667.0055">eEnter / make_timeout_stamp();</text><text fill="#000000" font-family="sans-serif" font-size="12" lengthAdjust="spacing" textLength="271.3887" x="475.29" y="680.9743">eEnter [RETRY TWICE!] / send_msg(STATUS);</text><text fill="#000000" font-family="sans-serif" font-size="12" lengthAdjust="spacing" textLength="39.4512" x="475.29" y="694.943">eTick /</text><text fill="#000000" font-family="sans-serif" font-size="12" lengthAdjust="spacing" textLength="37.9629" x="475.29" y="708.9118">eExit /</text></g><g id="DISPENSE_PILL"><rect fill="#F1F1F1" height="78.2031" rx="12.5" ry="12.5" style="stroke:#181818;stroke-width:0.5;" width="132.6699" x="549.65" y="808.74"/><line style="stroke:#181818;stroke-width:0.5;" x1="549.65" x2="682.3199" y1="835.0369" y2="835.0369"/><text fill="#000000" font-family="sans-serif" font-size="14" lengthAdjust="spacing" textLength="104.46" x="563.755" y="826.7351">DISPENSE_PILL</text><text fill="#000000" font-family="sans-serif" font-size="12" lengthAdjust="spacing" textLength="112.6699" x="554.65" y="851.1755">eEnter / timer = 0;</text><text fill="#000000" font-family="sans-serif" font-size="12" lengthAdjust="spacing" textLength="99.4629" x="554.65" y="865.1443">eTick / ++timer;</text><text fill="#000000" font-family="sans-serif" font-size="12" lengthAdjust="spacing" textLength="37.9629" x="554.65" y="879.113">eExit /</text></g><g id="DISPENSE_FAIL"><rect fill="#F1F1F1" height="92.1719" rx="12.5" ry="12.5" style="stroke:#181818;stroke-width:0.5;" width="269.2754" x="672.35" y="963.95"/><line style="stroke:#181818;stroke-width:0.5;" x1="672.35" x2="941.6254" y1="990.2469" y2="990.2469"/><text fill="#000000" font-family="sans-serif" font-size="14" lengthAdjust="spacing" textLength="105.8477" x="754.0639" y="981.9451">DISPENSE_FAIL</text><text fill="#000000" font-family="sans-serif" font-size="12" lengthAdjust="spacing" textLength="249.2754" x="677.35" y="1006.3855">eEnter / timer = 0; send_msg(DISP_FAIL);</text><text fill="#000000" font-family="sans-serif" font-size="12" lengthAdjust="spacing" textLength="99.4629" x="677.35" y="1020.3543">eTick / ++timer;</text><text fill="#000000" font-family="sans-serif" font-size="12" lengthAdjust="spacing" textLength="223.8457" x="677.35" y="1034.323">eTick [timer % 20 = 0] / led_toggle();</text><text fill="#000000" font-family="sans-serif" font-size="12" lengthAdjust="spacing" textLength="95.3086" x="677.35" y="1048.2918">eExit / led_off();</text></g><ellipse cx="533.98" cy="41.27" fill="#222222" rx="10" ry="10" style="stroke:#222222;stroke-width:1;"/><g class="entity" data-entity="GMN2" data-source-line="10" data-uid="ent0003" id="entity_GMN2"><path d="M83.79,155.92 L83.79,211.3184 A0,0 0 0 0 83.79,211.3184 L334.1816,211.3184 A0,0 0 0 0 334.1816,211.3184 L334.1816,187.62 L368.54,183.62 L334.1816,179.62 L334.1816,165.92 L324.1816,155.92 L83.79,155.92 A0,0 0 0 0 83.79,155.92" fill="#FEFFDD" style="stroke:#181818;stroke-width:0.5;"/><path d="M324.1816,155.92 L324.1816,165.92 L334.1816,165.92 L324.1816,155.92" fill="#FEFFDD" style="stroke:#181818;stroke-width:0.5;"/><text fill="#000000" font-family="sans-serif" font-size="13" lengthAdjust="spacing" textLength="195.3491" x="89.79" y="172.9869">When the dispenser is started</text><text fill="#000000" font-family="sans-serif" font-size="13" lengthAdjust="spacing" textLength="221.127" x="93.9223" y="188.1197">it waits for a button to be pressed</text><text fill="#000000" font-family="sans-serif" font-size="13" lengthAdjust="spacing" textLength="210.4438" x="93.9223" y="203.2525">and blinks an LED while waiting.</text></g><g class="entity" data-entity="GMN5" data-source-line="18" data-uid="ent0006" id="entity_GMN5"><path d="M36.03,306.71 L36.03,392.3741 A0,0 0 0 0 36.03,392.3741 L381.9348,392.3741 A0,0 0 0 0 381.9348,392.3741 L381.9348,353.54 L416.95,349.54 L381.9348,345.54 L381.9348,316.71 L371.9348,306.71 L36.03,306.71 A0,0 0 0 0 36.03,306.71" fill="#FEFFDD" style="stroke:#181818;stroke-width:0.5;"/><path d="M371.9348,306.71 L371.9348,316.71 L381.9348,316.71 L371.9348,306.71" fill="#FEFFDD" style="stroke:#181818;stroke-width:0.5;"/><text fill="#000000" font-family="sans-serif" font-size="13" lengthAdjust="spacing" textLength="272.689" x="42.03" y="323.7769">When the button is pressed the dispenser</text><text fill="#000000" font-family="sans-serif" font-size="13" lengthAdjust="spacing" textLength="219.0767" x="46.1623" y="338.9097">is calibrated by turning the wheel</text><text fill="#000000" font-family="sans-serif" font-size="13" lengthAdjust="spacing" textLength="255.0488" x="46.1623" y="354.0425">at least one full turn and then stopping</text><text fill="#000000" font-family="sans-serif" font-size="13" lengthAdjust="spacing" textLength="263.0723" x="46.1623" y="369.1753">the wheel so that the compartment with</text><text fill="#000000" font-family="sans-serif" font-size="13" lengthAdjust="spacing" textLength="320.7725" x="46.1623" y="384.3081">the sensor opening is aligned with the drop tube.</text></g><g class="entity" data-entity="GMN8" data-source-line="25" data-uid="ent0009" id="entity_GMN8"><path d="M6,488.34 L6,528.6056 A0,0 0 0 0 6,528.6056 L327.9678,528.6056 A0,0 0 0 0 327.9678,528.6056 L327.9678,512.47 L362.88,508.47 L327.9678,504.47 L327.9678,498.34 L317.9678,488.34 L6,488.34 A0,0 0 0 0 6,488.34" fill="#FEFFDD" style="stroke:#181818;stroke-width:0.5;"/><path d="M317.9678,488.34 L317.9678,498.34 L327.9678,498.34 L317.9678,488.34" fill="#FEFFDD" style="stroke:#181818;stroke-width:0.5;"/><text fill="#000000" font-family="sans-serif" font-size="13" lengthAdjust="spacing" textLength="232.9019" x="12" y="505.4069">After calibration the program keeps</text><text fill="#000000" font-family="sans-serif" font-size="13" lengthAdjust="spacing" textLength="296.8354" x="16.1323" y="520.5397">the LED on until user presses another button.</text></g><g class="entity" data-entity="GMN11" data-source-line="34" data-uid="ent0012" id="entity_GMN11"><path d="M130.98,650.53 L130.98,690.7956 A0,0 0 0 0 130.98,690.7956 L434.9903,690.7956 A0,0 0 0 0 434.9903,690.7956 L434.9903,674.66 L470.14,670.66 L434.9903,666.66 L434.9903,660.53 L424.9903,650.53 L130.98,650.53 A0,0 0 0 0 130.98,650.53" fill="#FEFFDD" style="stroke:#181818;stroke-width:0.5;"/><path d="M424.9903,650.53 L424.9903,660.53 L434.9903,660.53 L424.9903,650.53" fill="#FEFFDD" style="stroke:#181818;stroke-width:0.5;"/><text fill="#000000" font-family="sans-serif" font-size="13" lengthAdjust="spacing" textLength="184.9136" x="136.98" y="667.5969">Then it dispenses pills every</text><text fill="#000000" font-family="sans-serif" font-size="13" lengthAdjust="spacing" textLength="278.8779" x="141.1123" y="682.7297">30 seconds starting from the button press.</text></g><g class="entity" data-entity="GMN14" data-source-line="35" data-uid="ent0015" id="entity_GMN14"><path d="M796.63,642.96 L796.63,666.66 L762.16,670.66 L796.63,674.66 L796.63,698.3584 A0,0 0 0 0 796.63,698.3584 L1051.338,698.3584 A0,0 0 0 0 1051.338,698.3584 L1051.338,652.96 L1041.338,642.96 L796.63,642.96 A0,0 0 0 0 796.63,642.96" fill="#FEFFDD" style="stroke:#181818;stroke-width:0.5;"/><path d="M1041.338,642.96 L1041.338,652.96 L1051.338,652.96 L1041.338,642.96" fill="#FEFFDD" style="stroke:#181818;stroke-width:0.5;"/><text fill="#000000" font-family="sans-serif" font-size="13" lengthAdjust="spacing" textLength="229.5757" x="802.63" y="660.0269">When all pills have been dispensed</text><text fill="#000000" font-family="sans-serif" font-size="13" lengthAdjust="spacing" textLength="148.605" x="806.7623" y="675.1597">(wheel turned 7 times)</text><text fill="#000000" font-family="sans-serif" font-size="13" lengthAdjust="spacing" textLength="159.6816" x="806.7623" y="690.2925">the program starts over.</text></g><g class="entity" data-entity="GMN17" data-source-line="43" data-uid="ent0018" id="entity_GMN17"><path d="M265.28,820.15 L265.28,875.5484 A0,0 0 0 0 265.28,875.5484 L514.6814,875.5484 A0,0 0 0 0 514.6814,875.5484 L514.6814,851.85 L549.25,847.85 L514.6814,843.85 L514.6814,830.15 L504.6814,820.15 L265.28,820.15 A0,0 0 0 0 265.28,820.15" fill="#FEFFDD" style="stroke:#181818;stroke-width:0.5;"/><path d="M504.6814,820.15 L504.6814,830.15 L514.6814,830.15 L504.6814,820.15" fill="#FEFFDD" style="stroke:#181818;stroke-width:0.5;"/><text fill="#000000" font-family="sans-serif" font-size="13" lengthAdjust="spacing" textLength="171.3613" x="271.28" y="837.2169">When the wheel is turned,</text><text fill="#000000" font-family="sans-serif" font-size="13" lengthAdjust="spacing" textLength="220.1367" x="275.4123" y="852.3497">the piezo sensor is used to detect</text><text fill="#000000" font-family="sans-serif" font-size="13" lengthAdjust="spacing" textLength="190.2773" x="275.4123" y="867.4825">if a pill was dispensed or not.</text></g><g class="entity" data-entity="GMN20" data-source-line="51" data-uid="ent0021" id="entity_GMN20"><path d="M260.49,997.47 L260.49,1022.6028 A0,0 0 0 0 260.49,1022.6028 L637.4729,1022.6028 A0,0 0 0 0 637.4729,1022.6028 L637.4729,1015.47 L672.14,1010.03 L637.4729,1007.47 L637.4729,1007.47 L627.4729,997.47 L260.49,997.47 A0,0 0 0 0 260.49,997.47" fill="#FEFFDD" style="stroke:#181818;stroke-width:0.5;"/><path d="M627.4729,997.47 L627.4729,1007.47 L637.4729,1007.47 L627.4729,997.47" fill="#FEFFDD" style="stroke:#181818;stroke-width:0.5;"/><text fill="#000000" font-family="sans-serif" font-size="13" lengthAdjust="spacing" textLength="355.9829" x="266.49" y="1014.5369">If no pill was detected (200ms) the LED blinks 5 times.</text></g><!--link *start* to STANDBY--><g class="link" data-entity-1=".start." data-entity-2="STANDBY" data-source-line="1" data-uid="lnk3" id="link_.start._STANDBY"><path d="M533.98,51.48 C533.98,68.61 533.98,100.44 533.98,131.09" fill="none" id="*start*-to-STANDBY" style="stroke:#181818;stroke-width:1;"/><polygon fill="#181818" points="533.98,137.09,537.98,128.09,533.98,132.09,529.98,128.09,533.98,137.09" style="stroke:#181818;stroke-width:1;"/></g><!--link STANDBY to CHECK_CALIBRATION--><g class="link" data-entity-1="STANDBY" data-entity-2="CHECK_CALIBRATION" data-source-line="6" data-uid="lnk4" id="link_STANDBY_CHECK_CALIBRATION"><path d="M465.6,229.82 C456.85,238.65 449.16,248.65 443.98,259.71 C435.86,277.05 440.1042,290.3314 452.5342,305.4814" fill="none" id="STANDBY-to-CHECK_CALIBRATION" style="stroke:#181818;stroke-width:1;"/><polygon fill="#181818" points="456.34,310.12,453.7237,300.625,453.1685,306.2545,447.539,305.6993,456.34,310.12" style="stroke:#181818;stroke-width:1;"/><text fill="#000000" font-family="sans-serif" font-size="13" lengthAdjust="spacing" textLength="45.8872" x="444.98" y="272.7769">eSW0 /</text></g><!--link CHECK_CALIBRATION to STANDBY--><g class="link" data-entity-1="CHECK_CALIBRATION" data-entity-2="STANDBY" data-source-line="15" data-uid="lnk5" id="link_CHECK_CALIBRATION_STANDBY"><path d="M509.48,310.12 C514.17,286.1 519.078,260.9384 524.008,235.7384" fill="none" id="CHECK_CALIBRATION-to-STANDBY" style="stroke:#181818;stroke-width:1;"/><polygon fill="#181818" points="525.16,229.85,519.5065,237.9146,524.2,234.757,527.3576,239.4505,525.16,229.85" style="stroke:#181818;stroke-width:1;"/><text fill="#000000" font-family="sans-serif" font-size="13" lengthAdjust="spacing" textLength="172.3452" x="519.98" y="272.7769">eTick [calibrated = false] /</text></g><!--link CHECK_CALIBRATION to CALIBRATED--><g class="link" data-entity-1="CHECK_CALIBRATION" data-entity-2="CALIBRATED" data-source-line="16" data-uid="lnk6" id="link_CHECK_CALIBRATION_CALIBRATED"><path d="M501.98,388.93 C501.98,413.25 501.98,438.59 501.98,462.93" fill="none" id="CHECK_CALIBRATION-to-CALIBRATED" style="stroke:#181818;stroke-width:1;"/><polygon fill="#181818" points="501.98,468.93,505.98,459.93,501.98,463.93,497.98,459.93,501.98,468.93" style="stroke:#181818;stroke-width:1;"/><text fill="#000000" font-family="sans-serif" font-size="13" lengthAdjust="spacing" textLength="168.0986" x="502.98" y="435.4369">eTick [calibrated = true] /</text></g><!--link CALIBRATED to DISPENSE_WAIT--><g class="link" data-entity-1="CALIBRATED" data-entity-2="DISPENSE_WAIT" data-source-line="23" data-uid="lnk7" id="link_CALIBRATED_DISPENSE_WAIT"><path d="M492.46,547.87 C490.67,563.23 491.33,580.56 498.98,594.57 C505.18,605.9 509.3426,611.8658 519.2526,620.3958" fill="none" id="CALIBRATED-to-DISPENSE_WAIT" style="stroke:#181818;stroke-width:1;"/><polygon fill="#181818" points="523.8,624.31,519.5883,615.4071,520.0105,621.0482,514.3694,621.4703,523.8,624.31" style="stroke:#181818;stroke-width:1;"/><text fill="#000000" font-family="sans-serif" font-size="13" lengthAdjust="spacing" textLength="204.1089" x="499.98" y="590.6369">eSW1 / send_msg(DISP_START)</text></g><!--link DISPENSE_WAIT to DISPENSE_PILL--><g class="link" data-entity-1="DISPENSE_WAIT" data-entity-2="DISPENSE_PILL" data-source-line="31" data-uid="lnk8" id="link_DISPENSE_WAIT_DISPENSE_PILL"><path d="M469.85,712.26 C409.45,729.21 353.05,745.34 351.98,746.74 C343.41,758.09 342.79,767.89 351.98,778.74 C378.2,809.69 493.19,796.94 531.98,808.74 C537.65,810.47 537.8362,810.3459 543.5862,812.5459" fill="none" id="DISPENSE_WAIT-to-DISPENSE_PILL" style="stroke:#181818;stroke-width:1;"/><polygon fill="#181818" points="549.19,814.69,542.2136,807.738,544.5201,812.9033,539.3549,815.2098,549.19,814.69" style="stroke:#181818;stroke-width:1;"/><text fill="#000000" font-family="sans-serif" font-size="13" lengthAdjust="spacing" textLength="214.8682" x="352.98" y="759.8069">eTick [time_reached(TIMEOUT)] /</text><text fill="#000000" font-family="sans-serif" font-size="13" lengthAdjust="spacing" textLength="96.2622" x="414.3491" y="774.9397">++turn_count;</text></g><!--link DISPENSE_PILL to DISPENSE_WAIT--><g class="link" data-entity-1="DISPENSE_PILL" data-entity-2="DISPENSE_WAIT" data-source-line="40" data-uid="lnk10" id="link_DISPENSE_PILL_DISPENSE_WAIT"><path d="M613.99,808.32 C613.57,798.67 613.19,788.33 612.98,778.74 C612.54,758.48 612.803,742.0561 613.493,722.9861" fill="none" id="DISPENSE_PILL-to-DISPENSE_WAIT" style="stroke:#181818;stroke-width:1;"/><polygon fill="#181818" points="613.71,716.99,609.3872,725.8395,613.5292,721.9867,617.382,726.1287,613.71,716.99" style="stroke:#181818;stroke-width:1;"/><text fill="#000000" font-family="sans-serif" font-size="13" lengthAdjust="spacing" textLength="282.5977" x="613.98" y="767.3069">ePiezo / ++pill_count; send_msg(DISP_OK);</text></g><!--link DISPENSE_WAIT to STANDBY--><g class="link" data-entity-1="DISPENSE_WAIT" data-entity-2="STANDBY" data-source-line="32" data-uid="lnk9" id="link_DISPENSE_WAIT_STANDBY"><path d="M687.06,624.32 C695.92,615.56 703.7,605.62 708.98,594.57 C773.17,460.25 783.4,383.68 700.98,259.71 C693.33,248.19 688.2604,242.0061 677.1404,233.7161" fill="none" id="DISPENSE_WAIT-to-STANDBY" style="stroke:#181818;stroke-width:1;"/><polygon fill="#181818" points="672.33,230.13,677.1548,238.7161,676.3386,233.1185,681.9363,232.3023,672.33,230.13" style="stroke:#181818;stroke-width:1;"/><text fill="#000000" font-family="sans-serif" font-size="13" lengthAdjust="spacing" textLength="293.522" x="759.98" y="435.4369">eEnter [pill_count &gt;= 7] / send_msg(EMPTY);</text></g><!--link DISPENSE_PILL to DISPENSE_FAIL--><g class="link" data-entity-1="DISPENSE_PILL" data-entity-2="DISPENSE_FAIL" data-source-line="41" data-uid="lnk11" id="link_DISPENSE_PILL_DISPENSE_FAIL"><path d="M661.73,887.22 C689.1,910.17 719.4426,935.6146 748.1926,959.7246" fill="none" id="DISPENSE_PILL-to-DISPENSE_FAIL" style="stroke:#181818;stroke-width:1;"/><polygon fill="#181818" points="752.79,963.58,748.4642,954.732,748.9589,960.3672,743.3237,960.8618,752.79,963.58" style="stroke:#181818;stroke-width:1;"/><text fill="#000000" font-family="sans-serif" font-size="13" lengthAdjust="spacing" textLength="130.0508" x="717.98" y="930.0169">eTick [timer &gt;= 4] /</text></g><!--link DISPENSE_FAIL to DISPENSE_WAIT--><g class="link" data-entity-1="DISPENSE_FAIL" data-entity-2="DISPENSE_WAIT" data-source-line="49" data-uid="lnk12" id="link_DISPENSE_FAIL_DISPENSE_WAIT"><path d="M847.68,963.51 C892.58,907.56 952.16,812.03 900.98,746.74 C866.54,702.8 833.01,730.86 778.98,716.74 C773.44,715.3 773.5993,715.349 767.9093,713.839" fill="none" id="DISPENSE_FAIL-to-DISPENSE_WAIT" style="stroke:#181818;stroke-width:1;"/><polygon fill="#181818" points="762.11,712.3,769.7829,718.4747,766.9427,713.5825,771.8349,710.7423,762.11,712.3" style="stroke:#181818;stroke-width:1;"/><text fill="#000000" font-family="sans-serif" font-size="13" lengthAdjust="spacing" textLength="146.5928" x="920.98" y="852.4169">eTick [timer &gt;= 200] /</text></g><!--SRC=[VLRRRjj647tNLqm3190IMvBJfW4gs81YioWH-GA9WM7O1a69Gt6ZvIx1NTfnlwT_qX_hx9AKU5EV979cTcREcJdBnm_FS7fw0IjlVdFrzM5G_i8VW8xGcC44CbIe_IJOn4pWC1cTW6O9MSvXEglxUsopWyV2zXu-JOt3CyLp37qjjrkEmz4CZaHSdFy-jTuAHUWdQZjqhk-yXwF9d9zCbsVBAAA3zqRJpULVpkKt_tA-SBykvvvxUsD2LlTJc0m60o4rmZiu1QMpVAFXkkZi17v8fG986UV-HkP2dy2J09KBIF9Smnj7Ha1GFHXAJS61HdB5iV4wXLk-arB06TcfgO3dEyNWypHHOslUjpK2ydfXg3GJmF_z9qRzfc0Xbm6yOBOpXxo3GC7DML4enqY3ZE3G-tsC0dIC43ALeb243bEcdanZQ8eXP5u3fXL4CeC0rhdMb5DBM2EanAOgt08HmfepiLFq5nRE5Rp6ZAEDPM8x7WnwOQp6OXDmjiu810D-hwUbTm97Zh44zjXgqtYOaNsoa2OX2hZ2vwF1rJCrr1zFjDlm9i1zLUwXBZ4ad2i0cmGyMLijo_eDT9u9mj5wliQ8t8AkAM6WAAD0Y7BEhPlbGfjaIiiqDL5FeXQe93rGg7cpaKbAL2SeY6QcuygJ9amHtv8gCl5K3bMp5LIBzRBrPZAbV6iqt3PGgaYr-oJCdku7zk1eUEvYEsaVrTdCcjtmS-MkxfoRbUFVprslMCop-k8RkqyJiFH6ROhgYUQHARc2dCa2XJIJson8O8UOgWeQCzjafvLc77B3Ly6Y6Nn93bd9By7IAQv29Wbsw1ijahdsQTcIrAhP4V_7fUCj7y2xTo-TNngoHervtrU4IYUoMfVkaGMYBKC3oZjtiMWggfyXwHg6Gy-zTcw_UoDJnPFu-D7CMw5livuJE_h_UD13k3Y7BpqQFMlHr6x0CuDDBLJhegp6Aa0Il3V3qQzJEd8ZHLZAc9dVA9D9VVKiO-CYKSQsSMyckwy1BLMH80vUA1xfNPNQ2j-mM2e31BtuOcyODQg6fPeWMua2IKNMvw92kfgBslNKpyO427FZrEDGYc3pVU-Et37yMzgp3dpCMZjp-sqq-x-p_foxY_P5JPJ-rjN2Tg5x7IoG8sqfm3lPWsRBAoM8pBcLI0aXQgGhriXZ1CNTIlUBgl51_fIwZd1LPXVXLh_6iTvnexy-sFi0EFgbqbDGHzcQBht4jS3-PBzoZi5TPd8ZmgG6bWMHi1fIT4AJMcbQUNj_BYPu_1y0]--></g></svg>