<svg xmlns="http://www.w3.org/2000/svg" xmlns:xlink="http://www.w3.org/1999/xlink" contentStyleType="text/css" data-diagram-type="STATE" height="1020px" preserveAspectRatio="none" style="width:1004px;height:1020px;background:#FFFFFF;" version="1.1" viewBox="0 0 1004 1020" width="1004px" zoomAndPan="magnify"><defs/><g><g id="STANDBY"><rect fill="#F1F1F1" height="78.2031" rx="12.5" ry="12.5" style="stroke:#181818;stroke-width:0.5;" width="234.7402" x="367.58" y="137.53"/><line style="stroke:#181818;stroke-width:0.5;" x1="367.58" x2="602.3202" y1="163.8269" y2="163.8269"/><text fill="#000000" font-family="sans-serif" font-size="14" lengthAdjust="spacing" textLength="66.4248" x="451.7377" y="155.5251">STANDBY</text><text fill="#000000" font-family="sans-serif" font-size="12" lengthAdjust="spacing" textLength="214.7402" x="372.58" y="179.9655">eEnter / reset_machine_struct(&amp;m);</text><text fill="#000000" font-family="sans-serif" font-size="12" lengthAdjust="spacing" textLength="119.0039" x="372.58" y="193.9343">eTick / led_toggle();</text><text fill="#000000" font-family="sans-serif" font-size="12" lengthAdjust="spacing" textLength="95.3086" x="372.58" y="207.903">eExit / led_off();</text></g><g class="entity" data-entity="N1" data-source-line="8" data-uid="ent0003" id="entity_N1"><path d="M529.91,6 L529.91,76.5313 L771.9862,76.5313 L771.9862,16 L761.9862,6 L529.91,6" fill="#FEFFDD" style="stroke:#181818;stroke-width:0.5;"/><path d="M761.9862,6 L761.9862,16 L771.9862,16 L761.9862,6" fill="#FEFFDD" style="stroke:#181818;stroke-width:1;"/><text fill="#000000" font-family="sans-serif" font-size="13" lengthAdjust="spacing" textLength="216.9438" x="535.91" y="23.0669">- struct Machine, jossa pill_count,</text><text fill="#000000" font-family="sans-serif" font-size="13" lengthAdjust="spacing" textLength="210.7104" x="540.0423" y="38.1997">sun muut yleiset tiedot stateille.</text><text fill="#000000" font-family="sans-serif" font-size="13" lengthAdjust="spacing" textLength="4.1323" x="535.91" y="53.3325">&#160;</text><text fill="#000000" font-family="sans-serif" font-size="13" lengthAdjust="spacing" textLength="180.3687" x="540.0423" y="68.4653">- Olkoon 1 tick aluksi 50ms.</text></g><g id="CHECK_CALIBRATION"><rect fill="#F1F1F1" height="78.2031" rx="12.5" ry="12.5" style="stroke:#181818;stroke-width:0.5;" width="169.4678" x="387.22" y="296.46"/><line style="stroke:#181818;stroke-width:0.5;" x1="387.22" x2="556.6878" y1="322.7569" y2="322.7569"/><text fill="#000000" font-family="sans-serif" font-size="14" lengthAdjust="spacing" textLength="149.4678" x="397.22" y="314.4551">CHECK_CALIBRATION</text><text fill="#000000" font-family="sans-serif" font-size="12" lengthAdjust="spacing" textLength="117.2813" x="392.22" y="338.8955">eEnter / calibrate();</text><text fill="#000000" font-family="sans-serif" font-size="12" lengthAdjust="spacing" textLength="39.4512" x="392.22" y="352.8643">eTick /</text><text fill="#000000" font-family="sans-serif" font-size="12" lengthAdjust="spacing" textLength="37.9629" x="392.22" y="366.833">eExit /</text></g><g id="CALIBRATED"><rect fill="#F1F1F1" height="78.2031" rx="12.5" ry="12.5" style="stroke:#181818;stroke-width:0.5;" width="123.9512" x="454.98" y="455.4"/><line style="stroke:#181818;stroke-width:0.5;" x1="454.98" x2="578.9312" y1="481.6969" y2="481.6969"/><text fill="#000000" font-family="sans-serif" font-size="14" lengthAdjust="spacing" textLength="88.3682" x="472.7715" y="473.3951">CALIBRATED</text><text fill="#000000" font-family="sans-serif" font-size="12" lengthAdjust="spacing" textLength="103.9512" x="459.98" y="497.8355">eEnter / led_on();</text><text fill="#000000" font-family="sans-serif" font-size="12" lengthAdjust="spacing" textLength="39.4512" x="459.98" y="511.8043">eTick /</text><text fill="#000000" font-family="sans-serif" font-size="12" lengthAdjust="spacing" textLength="95.3086" x="459.98" y="525.773">eExit / led_off();</text></g><g id="DISPENSE_WAIT"><rect fill="#F1F1F1" height="78.2031" rx="12.5" ry="12.5" style="stroke:#181818;stroke-width:0.5;" width="132.6699" x="574.62" y="610.6"/><line style="stroke:#181818;stroke-width:0.5;" x1="574.62" x2="707.2899" y1="636.8969" y2="636.8969"/><text fill="#000000" font-family="sans-serif" font-size="14" lengthAdjust="spacing" textLength="112.3896" x="584.7601" y="628.5951">DISPENSE_WAIT</text><text fill="#000000" font-family="sans-serif" font-size="12" lengthAdjust="spacing" textLength="112.6699" x="579.62" y="653.0355">eEnter / timer = 0;</text><text fill="#000000" font-family="sans-serif" font-size="12" lengthAdjust="spacing" textLength="99.4629" x="579.62" y="667.0043">eTick / ++timer;</text><text fill="#000000" font-family="sans-serif" font-size="12" lengthAdjust="spacing" textLength="37.9629" x="579.62" y="680.973">eExit /</text></g><g id="DISPENSE_PILL"><rect fill="#F1F1F1" height="78.2031" rx="12.5" ry="12.5" style="stroke:#181818;stroke-width:0.5;" width="132.6699" x="494.62" y="780.8"/><line style="stroke:#181818;stroke-width:0.5;" x1="494.62" x2="627.2899" y1="807.0969" y2="807.0969"/><text fill="#000000" font-family="sans-serif" font-size="14" lengthAdjust="spacing" textLength="104.46" x="508.725" y="798.7951">DISPENSE_PILL</text><text fill="#000000" font-family="sans-serif" font-size="12" lengthAdjust="spacing" textLength="112.6699" x="499.62" y="823.2355">eEnter / timer = 0;</text><text fill="#000000" font-family="sans-serif" font-size="12" lengthAdjust="spacing" textLength="99.4629" x="499.62" y="837.2043">eTick / ++timer;</text><text fill="#000000" font-family="sans-serif" font-size="12" lengthAdjust="spacing" textLength="37.9629" x="499.62" y="851.173">eExit /</text></g><g id="DISPENSE_FAIL"><rect fill="#F1F1F1" height="78.2031" rx="12.5" ry="12.5" style="stroke:#181818;stroke-width:0.5;" width="205.291" x="535.31" y="936.01"/><line style="stroke:#181818;stroke-width:0.5;" x1="535.31" x2="740.601" y1="962.3069" y2="962.3069"/><text fill="#000000" font-family="sans-serif" font-size="14" lengthAdjust="spacing" textLength="105.8477" x="585.0317" y="954.0051">DISPENSE_FAIL</text><text fill="#000000" font-family="sans-serif" font-size="12" lengthAdjust="spacing" textLength="185.291" x="540.31" y="978.4455">eEnter / log_error(), count = 0;</text><text fill="#000000" font-family="sans-serif" font-size="12" lengthAdjust="spacing" textLength="180.5977" x="540.31" y="992.4143">eTick / led_toggle(), ++count;</text><text fill="#000000" font-family="sans-serif" font-size="12" lengthAdjust="spacing" textLength="37.9629" x="540.31" y="1006.383">eExit /</text></g><ellipse cx="484.95" cy="41.26" fill="#222222" rx="10" ry="10" style="stroke:#222222;stroke-width:1;"/><g class="entity" data-entity="GMN2" data-source-line="9" data-uid="ent0003" id="entity_GMN2"><path d="M81.76,148.93 L81.76,204.3284 A0,0 0 0 0 81.76,204.3284 L332.1516,204.3284 A0,0 0 0 0 332.1516,204.3284 L332.1516,180.63 L367.24,176.63 L332.1516,172.63 L332.1516,158.93 L322.1516,148.93 L81.76,148.93 A0,0 0 0 0 81.76,148.93" fill="#FEFFDD" style="stroke:#181818;stroke-width:0.5;"/><path d="M322.1516,148.93 L322.1516,158.93 L332.1516,158.93 L322.1516,148.93" fill="#FEFFDD" style="stroke:#181818;stroke-width:0.5;"/><text fill="#000000" font-family="sans-serif" font-size="13" lengthAdjust="spacing" textLength="195.3491" x="87.76" y="165.9969">When the dispenser is started</text><text fill="#000000" font-family="sans-serif" font-size="13" lengthAdjust="spacing" textLength="221.127" x="91.8923" y="181.1297">it waits for a button to be pressed</text><text fill="#000000" font-family="sans-serif" font-size="13" lengthAdjust="spacing" textLength="210.4438" x="91.8923" y="196.2625">and blinks an LED while waiting.</text></g><g class="entity" data-entity="GMN5" data-source-line="17" data-uid="ent0006" id="entity_GMN5"><path d="M6,292.73 L6,378.3941 A0,0 0 0 0 6,378.3941 L351.9048,378.3941 A0,0 0 0 0 351.9048,378.3941 L351.9048,339.57 L386.92,335.57 L351.9048,331.57 L351.9048,302.73 L341.9048,292.73 L6,292.73 A0,0 0 0 0 6,292.73" fill="#FEFFDD" style="stroke:#181818;stroke-width:0.5;"/><path d="M341.9048,292.73 L341.9048,302.73 L351.9048,302.73 L341.9048,292.73" fill="#FEFFDD" style="stroke:#181818;stroke-width:0.5;"/><text fill="#000000" font-family="sans-serif" font-size="13" lengthAdjust="spacing" textLength="272.689" x="12" y="309.7969">When the button is pressed the dispenser</text><text fill="#000000" font-family="sans-serif" font-size="13" lengthAdjust="spacing" textLength="219.0767" x="16.1323" y="324.9297">is calibrated by turning the wheel</text><text fill="#000000" font-family="sans-serif" font-size="13" lengthAdjust="spacing" textLength="255.0488" x="16.1323" y="340.0625">at least one full turn and then stopping</text><text fill="#000000" font-family="sans-serif" font-size="13" lengthAdjust="spacing" textLength="263.0723" x="16.1323" y="355.1953">the wheel so that the compartment with</text><text fill="#000000" font-family="sans-serif" font-size="13" lengthAdjust="spacing" textLength="320.7725" x="16.1323" y="370.3281">the sensor opening is aligned with the drop tube.</text></g><g class="entity" data-entity="GMN8" data-source-line="24" data-uid="ent0009" id="entity_GMN8"><path d="M97.97,474.37 L97.97,514.6356 A0,0 0 0 0 97.97,514.6356 L419.9378,514.6356 A0,0 0 0 0 419.9378,514.6356 L419.9378,498.5 L454.59,494.5 L419.9378,490.5 L419.9378,484.37 L409.9378,474.37 L97.97,474.37 A0,0 0 0 0 97.97,474.37" fill="#FEFFDD" style="stroke:#181818;stroke-width:0.5;"/><path d="M409.9378,474.37 L409.9378,484.37 L419.9378,484.37 L409.9378,474.37" fill="#FEFFDD" style="stroke:#181818;stroke-width:0.5;"/><text fill="#000000" font-family="sans-serif" font-size="13" lengthAdjust="spacing" textLength="232.9019" x="103.97" y="491.4369">After calibration the program keeps</text><text fill="#000000" font-family="sans-serif" font-size="13" lengthAdjust="spacing" textLength="296.8354" x="108.1023" y="506.5697">the LED on until user presses another button.</text></g><g class="entity" data-entity="GMN11" data-source-line="32" data-uid="ent0012" id="entity_GMN11"><path d="M235.95,629.57 L235.95,669.8356 A0,0 0 0 0 235.95,669.8356 L539.9603,669.8356 A0,0 0 0 0 539.9603,669.8356 L539.9603,653.7 L574.41,649.7 L539.9603,645.7 L539.9603,639.57 L529.9603,629.57 L235.95,629.57 A0,0 0 0 0 235.95,629.57" fill="#FEFFDD" style="stroke:#181818;stroke-width:0.5;"/><path d="M529.9603,629.57 L529.9603,639.57 L539.9603,639.57 L529.9603,629.57" fill="#FEFFDD" style="stroke:#181818;stroke-width:0.5;"/><text fill="#000000" font-family="sans-serif" font-size="13" lengthAdjust="spacing" textLength="184.9136" x="241.95" y="646.6369">Then it dispenses pills every</text><text fill="#000000" font-family="sans-serif" font-size="13" lengthAdjust="spacing" textLength="278.8779" x="246.0823" y="661.7697">30 seconds starting from the button press.</text></g><g class="entity" data-entity="GMN14" data-source-line="33" data-uid="ent0015" id="entity_GMN14"><path d="M742.6,622 L742.6,645.7 L707.59,649.7 L742.6,653.7 L742.6,677.3984 A0,0 0 0 0 742.6,677.3984 L997.308,677.3984 A0,0 0 0 0 997.308,677.3984 L997.308,632 L987.308,622 L742.6,622 A0,0 0 0 0 742.6,622" fill="#FEFFDD" style="stroke:#181818;stroke-width:0.5;"/><path d="M987.308,622 L987.308,632 L997.308,632 L987.308,622" fill="#FEFFDD" style="stroke:#181818;stroke-width:0.5;"/><text fill="#000000" font-family="sans-serif" font-size="13" lengthAdjust="spacing" textLength="229.5757" x="748.6" y="639.0669">When all pills have been dispensed</text><text fill="#000000" font-family="sans-serif" font-size="13" lengthAdjust="spacing" textLength="148.605" x="752.7323" y="654.1997">(wheel turned 7 times)</text><text fill="#000000" font-family="sans-serif" font-size="13" lengthAdjust="spacing" textLength="159.6816" x="752.7323" y="669.3325">the program starts over.</text></g><g class="entity" data-entity="GMN17" data-source-line="41" data-uid="ent0018" id="entity_GMN17"><path d="M210.25,792.21 L210.25,847.6084 A0,0 0 0 0 210.25,847.6084 L459.6514,847.6084 A0,0 0 0 0 459.6514,847.6084 L459.6514,823.91 L494.22,819.91 L459.6514,815.91 L459.6514,802.21 L449.6514,792.21 L210.25,792.21 A0,0 0 0 0 210.25,792.21" fill="#FEFFDD" style="stroke:#181818;stroke-width:0.5;"/><path d="M449.6514,792.21 L449.6514,802.21 L459.6514,802.21 L449.6514,792.21" fill="#FEFFDD" style="stroke:#181818;stroke-width:0.5;"/><text fill="#000000" font-family="sans-serif" font-size="13" lengthAdjust="spacing" textLength="171.3613" x="216.25" y="809.2769">When the wheel is turned,</text><text fill="#000000" font-family="sans-serif" font-size="13" lengthAdjust="spacing" textLength="220.1367" x="220.3823" y="824.4097">the piezo sensor is used to detect</text><text fill="#000000" font-family="sans-serif" font-size="13" lengthAdjust="spacing" textLength="190.2773" x="220.3823" y="839.5425">if a pill was dispensed or not.</text></g><g class="entity" data-entity="GMN20" data-source-line="48" data-uid="ent0021" id="entity_GMN20"><path d="M123.46,962.54 L123.46,987.6728 A0,0 0 0 0 123.46,987.6728 L500.4429,987.6728 A0,0 0 0 0 500.4429,987.6728 L500.4429,980.54 L535.04,975.11 L500.4429,972.54 L500.4429,972.54 L490.4429,962.54 L123.46,962.54 A0,0 0 0 0 123.46,962.54" fill="#FEFFDD" style="stroke:#181818;stroke-width:0.5;"/><path d="M490.4429,962.54 L490.4429,972.54 L500.4429,972.54 L490.4429,962.54" fill="#FEFFDD" style="stroke:#181818;stroke-width:0.5;"/><text fill="#000000" font-family="sans-serif" font-size="13" lengthAdjust="spacing" textLength="355.9829" x="129.46" y="979.6069">If no pill was detected (200ms) the LED blinks 5 times.</text></g><!--link *start* to STANDBY--><g class="link" data-entity-1=".start." data-entity-2="STANDBY" data-source-line="1" data-uid="lnk3" id="link_.start._STANDBY"><path d="M484.95,51.43 C484.95,68.85 484.95,101.64 484.95,131.27" fill="none" id="*start*-to-STANDBY" style="stroke:#181818;stroke-width:1;"/><polygon fill="#181818" points="484.95,137.27,488.95,128.27,484.95,132.27,480.95,128.27,484.95,137.27" style="stroke:#181818;stroke-width:1;"/></g><!--link STANDBY to CHECK_CALIBRATION--><g class="link" data-entity-1="STANDBY" data-entity-2="CHECK_CALIBRATION" data-source-line="5" data-uid="lnk4" id="link_STANDBY_CHECK_CALIBRATION"><path d="M418.44,216.14 C408.95,224.63 400.54,234.51 394.95,245.73 C385.86,264.01 391.2947,277.4121 406.5647,292.0221" fill="none" id="STANDBY-to-CHECK_CALIBRATION" style="stroke:#181818;stroke-width:1;"/><polygon fill="#181818" points="410.9,296.17,407.1623,287.0579,407.2873,292.7134,401.6318,292.8383,410.9,296.17" style="stroke:#181818;stroke-width:1;"/><text fill="#000000" font-family="sans-serif" font-size="13" lengthAdjust="spacing" textLength="45.8872" x="395.95" y="258.7969">eSW0 /</text></g><!--link CHECK_CALIBRATION to STANDBY--><g class="link" data-entity-1="CHECK_CALIBRATION" data-entity-2="STANDBY" data-source-line="14" data-uid="lnk5" id="link_CHECK_CALIBRATION_STANDBY"><path d="M475.14,296.03 C477.16,271.68 479.2658,246.3196 481.2758,221.9996" fill="none" id="CHECK_CALIBRATION-to-STANDBY" style="stroke:#181818;stroke-width:1;"/><polygon fill="#181818" points="481.77,216.02,477.0423,224.6599,481.3582,221.003,485.0151,225.3189,481.77,216.02" style="stroke:#181818;stroke-width:1;"/><text fill="#000000" font-family="sans-serif" font-size="13" lengthAdjust="spacing" textLength="211.4849" x="480.95" y="258.7969">eTick [m-&gt;calibrated == false] /</text></g><!--link CHECK_CALIBRATION to CALIBRATED--><g class="link" data-entity-1="CHECK_CALIBRATION" data-entity-2="CALIBRATED" data-source-line="15" data-uid="lnk6" id="link_CHECK_CALIBRATION_CALIBRATED"><path d="M465.09,374.94 C463.66,390.88 463.87,409.36 468.95,425.4 C472.23,435.74 474.3818,440.8777 480.4818,450.0277" fill="none" id="CHECK_CALIBRATION-to-CALIBRATED" style="stroke:#181818;stroke-width:1;"/><polygon fill="#181818" points="483.81,455.02,482.1459,445.3127,481.0365,450.8597,475.4895,449.7503,483.81,455.02" style="stroke:#181818;stroke-width:1;"/><text fill="#000000" font-family="sans-serif" font-size="13" lengthAdjust="spacing" textLength="207.2383" x="469.95" y="421.4669">eTick [m-&gt;calibrated == true] /</text></g><!--link CALIBRATED to DISPENSE_WAIT--><g class="link" data-entity-1="CALIBRATED" data-entity-2="DISPENSE_WAIT" data-source-line="22" data-uid="lnk7" id="link_CALIBRATED_DISPENSE_WAIT"><path d="M547.92,533.76 C566.79,557.07 587.0458,582.0957 605.9558,605.4657" fill="none" id="CALIBRATED-to-DISPENSE_WAIT" style="stroke:#181818;stroke-width:1;"/><polygon fill="#181818" points="609.73,610.13,607.1783,600.6174,606.5849,606.2431,600.9592,605.6496,609.73,610.13" style="stroke:#181818;stroke-width:1;"/><text fill="#000000" font-family="sans-serif" font-size="13" lengthAdjust="spacing" textLength="45.8872" x="582.95" y="576.6669">eSW1 /</text></g><!--link DISPENSE_WAIT to DISPENSE_PILL--><g class="link" data-entity-1="DISPENSE_WAIT" data-entity-2="DISPENSE_PILL" data-source-line="29" data-uid="lnk8" id="link_DISPENSE_WAIT_DISPENSE_PILL"><path d="M574.37,682.63 C568.87,684.85 563.35,686.94 557.95,688.8 C503.53,707.57 467.63,673.63 431.95,718.8 C423.14,729.96 424.61,738.62 431.95,750.8 C435.91,757.36 459.5615,770.2808 489.0915,784.8808" fill="none" id="DISPENSE_WAIT-to-DISPENSE_PILL" style="stroke:#181818;stroke-width:1;"/><polygon fill="#181818" points="494.47,787.54,488.175,779.9655,489.9879,785.324,484.6294,787.1369,494.47,787.54" style="stroke:#181818;stroke-width:1;"/><text fill="#000000" font-family="sans-serif" font-size="13" lengthAdjust="spacing" textLength="146.5928" x="439.9546" y="731.8669">eTick [timer &gt;= 600] /</text><text fill="#000000" font-family="sans-serif" font-size="13" lengthAdjust="spacing" textLength="164.7344" x="432.95" y="746.9997">++pill_count, dispense();</text></g><!--link DISPENSE_PILL to DISPENSE_WAIT--><g class="link" data-entity-1="DISPENSE_PILL" data-entity-2="DISPENSE_WAIT" data-source-line="38" data-uid="lnk10" id="link_DISPENSE_PILL_DISPENSE_WAIT"><path d="M585.54,780.65 C591.25,771.08 597.08,760.71 601.95,750.8 C611.74,730.88 618.7931,713.4827 625.7431,694.5427" fill="none" id="DISPENSE_PILL-to-DISPENSE_WAIT" style="stroke:#181818;stroke-width:1;"/><polygon fill="#181818" points="627.81,688.91,620.9544,695.9812,626.0876,693.604,628.4648,698.7371,627.81,688.91" style="stroke:#181818;stroke-width:1;"/><text fill="#000000" font-family="sans-serif" font-size="13" lengthAdjust="spacing" textLength="50.7368" x="615.95" y="739.3669">ePiezo /</text></g><!--link DISPENSE_WAIT to STANDBY--><g class="link" data-entity-1="DISPENSE_WAIT" data-entity-2="STANDBY" data-source-line="30" data-uid="lnk9" id="link_DISPENSE_WAIT_STANDBY"><path d="M662.96,610.21 C703.87,533.01 780.41,357.13 698.95,245.73 C676.29,214.73 645.191,199.0042 608.361,189.5342" fill="none" id="DISPENSE_WAIT-to-STANDBY" style="stroke:#181818;stroke-width:1;"/><polygon fill="#181818" points="602.55,188.04,610.2704,194.1552,607.3925,189.2851,612.2626,186.4073,602.55,188.04" style="stroke:#181818;stroke-width:1;"/><text fill="#000000" font-family="sans-serif" font-size="13" lengthAdjust="spacing" textLength="194.5112" x="732.95" y="421.4669">eEnter [m-&gt;pill_count &gt;= 7] /</text></g><!--link DISPENSE_PILL to DISPENSE_FAIL--><g class="link" data-entity-1="DISPENSE_PILL" data-entity-2="DISPENSE_FAIL" data-source-line="39" data-uid="lnk11" id="link_DISPENSE_PILL_DISPENSE_FAIL"><path d="M552.34,859.24 C550.75,874.42 551.32,891.65 557.95,906.01 C563.08,917.1 566.6974,922.8682 575.5974,931.5182" fill="none" id="DISPENSE_PILL-to-DISPENSE_FAIL" style="stroke:#181818;stroke-width:1;"/><polygon fill="#181818" points="579.9,935.7,576.2339,926.5589,576.3145,932.2152,570.6582,932.2958,579.9,935.7" style="stroke:#181818;stroke-width:1;"/><text fill="#000000" font-family="sans-serif" font-size="13" lengthAdjust="spacing" textLength="130.0508" x="558.95" y="902.0769">eTick [timer &gt;= 4] /</text></g><!--link DISPENSE_FAIL to DISPENSE_WAIT--><g class="link" data-entity-1="DISPENSE_FAIL" data-entity-2="DISPENSE_WAIT" data-source-line="46" data-uid="lnk12" id="link_DISPENSE_FAIL_DISPENSE_WAIT"><path d="M677.11,935.59 C684.01,926.58 690.18,916.53 693.95,906.01 C722.16,827.28 698.63,799.01 674.95,718.8 C672,708.79 670.2631,703.8614 665.6331,694.3814" fill="none" id="DISPENSE_FAIL-to-DISPENSE_WAIT" style="stroke:#181818;stroke-width:1;"/><polygon fill="#181818" points="663,688.99,663.3554,698.8324,665.1943,693.4828,670.5439,695.3216,663,688.99" style="stroke:#181818;stroke-width:1;"/><text fill="#000000" font-family="sans-serif" font-size="13" lengthAdjust="spacing" textLength="202.4077" x="706.95" y="824.4769">eTick [count &gt;= 10] / led_off();</text></g><!--SRC=[VLLjRzem4FxEhpZrmmJZfNHRLsaLbMZBD3H6gu5KJMs50bo8XsD7jjEk-_KxsqcQD64I4f1xUUwUv-vo__uH-lqBM2p7y-lBNwti6xu0JeH11SUWKADPnS4cOW9NsgXqOzhluivvsNd9DdlovRXT6RdRSMnNxPC_p6Hs6OPbeqM_-ZQv-hww6i-cbp_7o-dDt8OixePmt6grX3G8HttmoF335zA3trBh01B6-MeZKs5wy210fmBYD3Nmmf5HtM0ORgMXuC0WkUB0Uj6d3pTyBwM04tAXsWEUxZM3qs6i1qSGQ9YVU6IEeG4PmcipTn4AC172bka4XIQMcBO8ok3MvgPMdmDcD8HIGG3hr1W2CXBM20dHgRrR8BQmvapiDVs4sUGQdYF6qSKoiHkqMesyvBfi0ixMYjgoR3PwPg8SIECKQR2Lng58SX_tBmgyBOn640PSu-F11Fb_Qkfm3XBKfQWItLHjGNd69V6T4raLui7PIZ3h5p2f4iIdytoE4BaZtn1We0bH88GfvyxDQM8ic3OoIMpKWoW5Qab_ADG-sSWu8SbZ52GtCr7kgQaIqbrIHJQUog5gTe9gSLwkNYKJmbkZrRZ2L2wkMnJXbAqpUVmsgBPS9RjLutgwk9tC5vFLtNYwzBjrKkUzd7CSsZfo7fdqhILAxbGGmnunqNc_Td39JXl8EAHM12-DdMf93YeJZNgjrP6tQrXCtoCOdjTziYdkTfrJWqFM_Xj3fU_RwMpsEeWUxM84duT3cZzgfDijtv5yd2oJzQIr4sa7-pNSvZshJ_NRgfTsoAZk74kxIwO1dr2zM6e_3ccIDb9iizDYPobKCYwlWIDwu84KsqMDI6vt0Xfm3n05JnIFz2o7TiUexGVSBW4zE7EAw4wkSIwygqI3f2BBSkRq_a_EYWHDSXP9_66gFc-Subk6VsL5-Rhlr_6qIVbF_r4eAwIuEPuPscDFJgyWnS5dwqxcr9qZ2LiqI2ygUuf2y6yekkcwn3Vv4tIPmRpCOl_bReLAITNkzC3FLPNEIb_L5s-Fo7KX3UwrNN66HdOzOyLCdxXLATsO0-nbIDEGMYprxZYXrjiVXlIAxHIN8ti1dlg16_m3]--></g></svg>