<svg xmlns="http://www.w3.org/2000/svg" xmlns:xlink="http://www.w3.org/1999/xlink" contentStyleType="text/css" data-diagram-type="STATE" height="1020px" preserveAspectRatio="none" style="width:1003px;height:1020px;background:#FFFFFF;" version="1.1" viewBox="0 0 1003 1020" width="1003px" zoomAndPan="magnify"><defs/><g><g id="STANDBY"><rect fill="#F1F1F1" height="78.2031" rx="12.5" ry="12.5" style="stroke:#181818;stroke-width:0.5;" width="234.7402" x="367.58" y="137.53"/><line style="stroke:#181818;stroke-width:0.5;" x1="367.58" x2="602.3202" y1="163.8269" y2="163.8269"/><text fill="#000000" font-family="sans-serif" font-size="14" lengthAdjust="spacing" textLength="66.4248" x="451.7377" y="155.5251">STANDBY</text><text fill="#000000" font-family="sans-serif" font-size="12" lengthAdjust="spacing" textLength="214.7402" x="372.58" y="179.9655">eEnter / reset_machine_struct(&amp;m);</text><text fill="#000000" font-family="sans-serif" font-size="12" lengthAdjust="spacing" textLength="119.0039" x="372.58" y="193.9343">eTick / led_toggle();</text><text fill="#000000" font-family="sans-serif" font-size="12" lengthAdjust="spacing" textLength="95.3086" x="372.58" y="207.903">eExit / led_off();</text></g><g class="entity" data-entity="N1" data-source-line="8" data-uid="ent0003" id="entity_N1"><path d="M529.91,6 L529.91,76.5313 L771.9862,76.5313 L771.9862,16 L761.9862,6 L529.91,6" fill="#FEFFDD" style="stroke:#181818;stroke-width:0.5;"/><path d="M761.9862,6 L761.9862,16 L771.9862,16 L761.9862,6" fill="#FEFFDD" style="stroke:#181818;stroke-width:1;"/><text fill="#000000" font-family="sans-serif" font-size="13" lengthAdjust="spacing" textLength="216.9438" x="535.91" y="23.0669">- struct Machine, jossa pill_count,</text><text fill="#000000" font-family="sans-serif" font-size="13" lengthAdjust="spacing" textLength="210.7104" x="540.0423" y="38.1997">sun muut yleiset tiedot stateille.</text><text fill="#000000" font-family="sans-serif" font-size="13" lengthAdjust="spacing" textLength="4.1323" x="535.91" y="53.3325">&#160;</text><text fill="#000000" font-family="sans-serif" font-size="13" lengthAdjust="spacing" textLength="180.3687" x="540.0423" y="68.4653">- Olkoon 1 tick aluksi 50ms.</text></g><g id="CHECK_CALIBRATION"><rect fill="#F1F1F1" height="78.2031" rx="12.5" ry="12.5" style="stroke:#181818;stroke-width:0.5;" width="169.4678" x="387.22" y="296.46"/><line style="stroke:#181818;stroke-width:0.5;" x1="387.22" x2="556.6878" y1="322.7569" y2="322.7569"/><text fill="#000000" font-family="sans-serif" font-size="14" lengthAdjust="spacing" textLength="149.4678" x="397.22" y="314.4551">CHECK_CALIBRATION</text><text fill="#000000" font-family="sans-serif" font-size="12" lengthAdjust="spacing" textLength="117.2813" x="392.22" y="338.8955">eEnter / calibrate();</text><text fill="#000000" font-family="sans-serif" font-size="12" lengthAdjust="spacing" textLength="39.4512" x="392.22" y="352.8643">eTick /</text><text fill="#000000" font-family="sans-serif" font-size="12" lengthAdjust="spacing" textLength="37.9629" x="392.22" y="366.833">eExit /</text></g><g id="CALIBRATED"><rect fill="#F1F1F1" height="78.2031" rx="12.5" ry="12.5" style="stroke:#181818;stroke-width:0.5;" width="123.9512" x="445.98" y="455.4"/><line style="stroke:#181818;stroke-width:0.5;" x1="445.98" x2="569.9312" y1="481.6969" y2="481.6969"/><text fill="#000000" font-family="sans-serif" font-size="14" lengthAdjust="spacing" textLength="88.3682" x="463.7715" y="473.3951">CALIBRATED</text><text fill="#000000" font-family="sans-serif" font-size="12" lengthAdjust="spacing" textLength="103.9512" x="450.98" y="497.8355">eEnter / led_on();</text><text fill="#000000" font-family="sans-serif" font-size="12" lengthAdjust="spacing" textLength="39.4512" x="450.98" y="511.8043">eTick /</text><text fill="#000000" font-family="sans-serif" font-size="12" lengthAdjust="spacing" textLength="95.3086" x="450.98" y="525.773">eExit / led_off();</text></g><g id="DISPENSE_WAIT"><rect fill="#F1F1F1" height="78.2031" rx="12.5" ry="12.5" style="stroke:#181818;stroke-width:0.5;" width="132.6699" x="565.62" y="610.6"/><line style="stroke:#181818;stroke-width:0.5;" x1="565.62" x2="698.2899" y1="636.8969" y2="636.8969"/><text fill="#000000" font-family="sans-serif" font-size="14" lengthAdjust="spacing" textLength="112.3896" x="575.7601" y="628.5951">DISPENSE_WAIT</text><text fill="#000000" font-family="sans-serif" font-size="12" lengthAdjust="spacing" textLength="112.6699" x="570.62" y="653.0355">eEnter / timer = 0;</text><text fill="#000000" font-family="sans-serif" font-size="12" lengthAdjust="spacing" textLength="99.4629" x="570.62" y="667.0043">eTick / ++timer;</text><text fill="#000000" font-family="sans-serif" font-size="12" lengthAdjust="spacing" textLength="37.9629" x="570.62" y="680.973">eExit /</text></g><g id="DISPENSE_PILL"><rect fill="#F1F1F1" height="78.2031" rx="12.5" ry="12.5" style="stroke:#181818;stroke-width:0.5;" width="132.6699" x="565.62" y="780.8"/><line style="stroke:#181818;stroke-width:0.5;" x1="565.62" x2="698.2899" y1="807.0969" y2="807.0969"/><text fill="#000000" font-family="sans-serif" font-size="14" lengthAdjust="spacing" textLength="104.46" x="579.725" y="798.7951">DISPENSE_PILL</text><text fill="#000000" font-family="sans-serif" font-size="12" lengthAdjust="spacing" textLength="112.6699" x="570.62" y="823.2355">eEnter / timer = 0;</text><text fill="#000000" font-family="sans-serif" font-size="12" lengthAdjust="spacing" textLength="99.4629" x="570.62" y="837.2043">eTick / ++timer;</text><text fill="#000000" font-family="sans-serif" font-size="12" lengthAdjust="spacing" textLength="37.9629" x="570.62" y="851.173">eExit /</text></g><g id="DISPENSE_FAIL"><rect fill="#F1F1F1" height="78.2031" rx="12.5" ry="12.5" style="stroke:#181818;stroke-width:0.5;" width="205.291" x="606.31" y="936.01"/><line style="stroke:#181818;stroke-width:0.5;" x1="606.31" x2="811.601" y1="962.3069" y2="962.3069"/><text fill="#000000" font-family="sans-serif" font-size="14" lengthAdjust="spacing" textLength="105.8477" x="656.0317" y="954.0051">DISPENSE_FAIL</text><text fill="#000000" font-family="sans-serif" font-size="12" lengthAdjust="spacing" textLength="185.291" x="611.31" y="978.4455">eEnter / log_error(), count = 0;</text><text fill="#000000" font-family="sans-serif" font-size="12" lengthAdjust="spacing" textLength="180.5977" x="611.31" y="992.4143">eTick / led_toggle(), ++count;</text><text fill="#000000" font-family="sans-serif" font-size="12" lengthAdjust="spacing" textLength="37.9629" x="611.31" y="1006.383">eExit /</text></g><ellipse cx="484.95" cy="41.26" fill="#222222" rx="10" ry="10" style="stroke:#222222;stroke-width:1;"/><g class="entity" data-entity="GMN2" data-source-line="9" data-uid="ent0003" id="entity_GMN2"><path d="M81.76,148.93 L81.76,204.3284 A0,0 0 0 0 81.76,204.3284 L332.1516,204.3284 A0,0 0 0 0 332.1516,204.3284 L332.1516,180.63 L367.24,176.63 L332.1516,172.63 L332.1516,158.93 L322.1516,148.93 L81.76,148.93 A0,0 0 0 0 81.76,148.93" fill="#FEFFDD" style="stroke:#181818;stroke-width:0.5;"/><path d="M322.1516,148.93 L322.1516,158.93 L332.1516,158.93 L322.1516,148.93" fill="#FEFFDD" style="stroke:#181818;stroke-width:0.5;"/><text fill="#000000" font-family="sans-serif" font-size="13" lengthAdjust="spacing" textLength="195.3491" x="87.76" y="165.9969">When the dispenser is started</text><text fill="#000000" font-family="sans-serif" font-size="13" lengthAdjust="spacing" textLength="221.127" x="91.8923" y="181.1297">it waits for a button to be pressed</text><text fill="#000000" font-family="sans-serif" font-size="13" lengthAdjust="spacing" textLength="210.4438" x="91.8923" y="196.2625">and blinks an LED while waiting.</text></g><g class="entity" data-entity="GMN5" data-source-line="17" data-uid="ent0006" id="entity_GMN5"><path d="M6,292.73 L6,378.3941 A0,0 0 0 0 6,378.3941 L351.9048,378.3941 A0,0 0 0 0 351.9048,378.3941 L351.9048,339.57 L386.92,335.57 L351.9048,331.57 L351.9048,302.73 L341.9048,292.73 L6,292.73 A0,0 0 0 0 6,292.73" fill="#FEFFDD" style="stroke:#181818;stroke-width:0.5;"/><path d="M341.9048,292.73 L341.9048,302.73 L351.9048,302.73 L341.9048,292.73" fill="#FEFFDD" style="stroke:#181818;stroke-width:0.5;"/><text fill="#000000" font-family="sans-serif" font-size="13" lengthAdjust="spacing" textLength="272.689" x="12" y="309.7969">When the button is pressed the dispenser</text><text fill="#000000" font-family="sans-serif" font-size="13" lengthAdjust="spacing" textLength="219.0767" x="16.1323" y="324.9297">is calibrated by turning the wheel</text><text fill="#000000" font-family="sans-serif" font-size="13" lengthAdjust="spacing" textLength="255.0488" x="16.1323" y="340.0625">at least one full turn and then stopping</text><text fill="#000000" font-family="sans-serif" font-size="13" lengthAdjust="spacing" textLength="263.0723" x="16.1323" y="355.1953">the wheel so that the compartment with</text><text fill="#000000" font-family="sans-serif" font-size="13" lengthAdjust="spacing" textLength="320.7725" x="16.1323" y="370.3281">the sensor opening is aligned with the drop tube.</text></g><g class="entity" data-entity="GMN8" data-source-line="24" data-uid="ent0009" id="entity_GMN8"><path d="M88.97,474.37 L88.97,514.6356 A0,0 0 0 0 88.97,514.6356 L410.9378,514.6356 A0,0 0 0 0 410.9378,514.6356 L410.9378,498.5 L445.59,494.5 L410.9378,490.5 L410.9378,484.37 L400.9378,474.37 L88.97,474.37 A0,0 0 0 0 88.97,474.37" fill="#FEFFDD" style="stroke:#181818;stroke-width:0.5;"/><path d="M400.9378,474.37 L400.9378,484.37 L410.9378,484.37 L400.9378,474.37" fill="#FEFFDD" style="stroke:#181818;stroke-width:0.5;"/><text fill="#000000" font-family="sans-serif" font-size="13" lengthAdjust="spacing" textLength="232.9019" x="94.97" y="491.4369">After calibration the program keeps</text><text fill="#000000" font-family="sans-serif" font-size="13" lengthAdjust="spacing" textLength="296.8354" x="99.1023" y="506.5697">the LED on until user presses another button.</text></g><g class="entity" data-entity="GMN11" data-source-line="32" data-uid="ent0012" id="entity_GMN11"><path d="M226.95,629.57 L226.95,669.8356 A0,0 0 0 0 226.95,669.8356 L530.9603,669.8356 A0,0 0 0 0 530.9603,669.8356 L530.9603,653.7 L565.41,649.7 L530.9603,645.7 L530.9603,639.57 L520.9603,629.57 L226.95,629.57 A0,0 0 0 0 226.95,629.57" fill="#FEFFDD" style="stroke:#181818;stroke-width:0.5;"/><path d="M520.9603,629.57 L520.9603,639.57 L530.9603,639.57 L520.9603,629.57" fill="#FEFFDD" style="stroke:#181818;stroke-width:0.5;"/><text fill="#000000" font-family="sans-serif" font-size="13" lengthAdjust="spacing" textLength="184.9136" x="232.95" y="646.6369">Then it dispenses pills every</text><text fill="#000000" font-family="sans-serif" font-size="13" lengthAdjust="spacing" textLength="278.8779" x="237.0823" y="661.7697">30 seconds starting from the button press.</text></g><g class="entity" data-entity="GMN14" data-source-line="33" data-uid="ent0015" id="entity_GMN14"><path d="M733.6,622 L733.6,645.7 L698.59,649.7 L733.6,653.7 L733.6,677.3984 A0,0 0 0 0 733.6,677.3984 L988.308,677.3984 A0,0 0 0 0 988.308,677.3984 L988.308,632 L978.308,622 L733.6,622 A0,0 0 0 0 733.6,622" fill="#FEFFDD" style="stroke:#181818;stroke-width:0.5;"/><path d="M978.308,622 L978.308,632 L988.308,632 L978.308,622" fill="#FEFFDD" style="stroke:#181818;stroke-width:0.5;"/><text fill="#000000" font-family="sans-serif" font-size="13" lengthAdjust="spacing" textLength="229.5757" x="739.6" y="639.0669">When all pills have been dispensed</text><text fill="#000000" font-family="sans-serif" font-size="13" lengthAdjust="spacing" textLength="148.605" x="743.7323" y="654.1997">(wheel turned 7 times)</text><text fill="#000000" font-family="sans-serif" font-size="13" lengthAdjust="spacing" textLength="159.6816" x="743.7323" y="669.3325">the program starts over.</text></g><g class="entity" data-entity="GMN17" data-source-line="41" data-uid="ent0018" id="entity_GMN17"><path d="M281.25,792.21 L281.25,847.6084 A0,0 0 0 0 281.25,847.6084 L530.6514,847.6084 A0,0 0 0 0 530.6514,847.6084 L530.6514,823.91 L565.22,819.91 L530.6514,815.91 L530.6514,802.21 L520.6514,792.21 L281.25,792.21 A0,0 0 0 0 281.25,792.21" fill="#FEFFDD" style="stroke:#181818;stroke-width:0.5;"/><path d="M520.6514,792.21 L520.6514,802.21 L530.6514,802.21 L520.6514,792.21" fill="#FEFFDD" style="stroke:#181818;stroke-width:0.5;"/><text fill="#000000" font-family="sans-serif" font-size="13" lengthAdjust="spacing" textLength="171.3613" x="287.25" y="809.2769">When the wheel is turned,</text><text fill="#000000" font-family="sans-serif" font-size="13" lengthAdjust="spacing" textLength="220.1367" x="291.3823" y="824.4097">the piezo sensor is used to detect</text><text fill="#000000" font-family="sans-serif" font-size="13" lengthAdjust="spacing" textLength="190.2773" x="291.3823" y="839.5425">if a pill was dispensed or not.</text></g><g class="entity" data-entity="GMN20" data-source-line="48" data-uid="ent0021" id="entity_GMN20"><path d="M194.46,962.54 L194.46,987.6728 A0,0 0 0 0 194.46,987.6728 L571.4429,987.6728 A0,0 0 0 0 571.4429,987.6728 L571.4429,980.54 L606.04,975.11 L571.4429,972.54 L571.4429,972.54 L561.4429,962.54 L194.46,962.54 A0,0 0 0 0 194.46,962.54" fill="#FEFFDD" style="stroke:#181818;stroke-width:0.5;"/><path d="M561.4429,962.54 L561.4429,972.54 L571.4429,972.54 L561.4429,962.54" fill="#FEFFDD" style="stroke:#181818;stroke-width:0.5;"/><text fill="#000000" font-family="sans-serif" font-size="13" lengthAdjust="spacing" textLength="355.9829" x="200.46" y="979.6069">If no pill was detected (200ms) the LED blinks 5 times.</text></g><!--link *start* to STANDBY--><g class="link" data-entity-1=".start." data-entity-2="STANDBY" data-source-line="1" data-uid="lnk3" id="link_.start._STANDBY"><path d="M484.95,51.43 C484.95,68.85 484.95,101.64 484.95,131.27" fill="none" id="*start*-to-STANDBY" style="stroke:#181818;stroke-width:1;"/><polygon fill="#181818" points="484.95,137.27,488.95,128.27,484.95,132.27,480.95,128.27,484.95,137.27" style="stroke:#181818;stroke-width:1;"/></g><!--link STANDBY to CHECK_CALIBRATION--><g class="link" data-entity-1="STANDBY" data-entity-2="CHECK_CALIBRATION" data-source-line="5" data-uid="lnk4" id="link_STANDBY_CHECK_CALIBRATION"><path d="M387.62,216.04 C376.62,224.24 366.89,234.05 359.95,245.73 C346.71,268.03 357.8179,283.8052 381.6679,298.3552" fill="none" id="STANDBY-to-CHECK_CALIBRATION" style="stroke:#181818;stroke-width:1;"/><polygon fill="#181818" points="386.79,301.48,381.1901,293.3781,382.5216,298.876,377.0237,300.2075,386.79,301.48" style="stroke:#181818;stroke-width:1;"/><text fill="#000000" font-family="sans-serif" font-size="13" lengthAdjust="spacing" textLength="80.2471" x="360.95" y="258.7969">eKey(SW0) /</text></g><!--link CHECK_CALIBRATION to STANDBY--><g class="link" data-entity-1="CHECK_CALIBRATION" data-entity-2="STANDBY" data-source-line="14" data-uid="lnk5" id="link_CHECK_CALIBRATION_STANDBY"><path d="M475.14,296.03 C477.16,271.68 479.2658,246.3196 481.2758,221.9996" fill="none" id="CHECK_CALIBRATION-to-STANDBY" style="stroke:#181818;stroke-width:1;"/><polygon fill="#181818" points="481.77,216.02,477.0423,224.6599,481.3582,221.003,485.0151,225.3189,481.77,216.02" style="stroke:#181818;stroke-width:1;"/><text fill="#000000" font-family="sans-serif" font-size="13" lengthAdjust="spacing" textLength="211.4849" x="480.95" y="258.7969">eTick [m-&gt;calibrated == false] /</text></g><!--link CHECK_CALIBRATION to CALIBRATED--><g class="link" data-entity-1="CHECK_CALIBRATION" data-entity-2="CALIBRATED" data-source-line="15" data-uid="lnk6" id="link_CHECK_CALIBRATION_CALIBRATED"><path d="M465.81,375.16 C464.53,390.97 464.67,409.29 468.95,425.4 C471.65,435.54 473.3563,440.4839 478.4763,449.7839" fill="none" id="CHECK_CALIBRATION-to-CALIBRATED" style="stroke:#181818;stroke-width:1;"/><polygon fill="#181818" points="481.37,455.04,480.5335,445.2267,478.9586,450.6599,473.5254,449.085,481.37,455.04" style="stroke:#181818;stroke-width:1;"/><text fill="#000000" font-family="sans-serif" font-size="13" lengthAdjust="spacing" textLength="207.2383" x="469.95" y="421.4669">eTick [m-&gt;calibrated == true] /</text></g><!--link CALIBRATED to DISPENSE_WAIT--><g class="link" data-entity-1="CALIBRATED" data-entity-2="DISPENSE_WAIT" data-source-line="22" data-uid="lnk7" id="link_CALIBRATED_DISPENSE_WAIT"><path d="M538.92,533.76 C557.79,557.07 578.0458,582.0957 596.9558,605.4657" fill="none" id="CALIBRATED-to-DISPENSE_WAIT" style="stroke:#181818;stroke-width:1;"/><polygon fill="#181818" points="600.73,610.13,598.1783,600.6174,597.5849,606.2431,591.9592,605.6496,600.73,610.13" style="stroke:#181818;stroke-width:1;"/><text fill="#000000" font-family="sans-serif" font-size="13" lengthAdjust="spacing" textLength="80.2471" x="573.95" y="576.6669">eKey(SW1) /</text></g><!--link DISPENSE_WAIT to DISPENSE_PILL--><g class="link" data-entity-1="DISPENSE_WAIT" data-entity-2="DISPENSE_PILL" data-source-line="29" data-uid="lnk8" id="link_DISPENSE_WAIT_DISPENSE_PILL"><path d="M565.37,682.63 C559.87,684.85 554.35,686.94 548.95,688.8 C494.53,707.57 458.63,673.63 422.95,718.8 C414.14,729.96 414.15,739.64 422.95,750.8 C458.32,795.67 493.91,762.25 547.95,780.8 C553.71,782.78 554.0431,782.7718 559.9131,785.1318" fill="none" id="DISPENSE_WAIT-to-DISPENSE_PILL" style="stroke:#181818;stroke-width:1;"/><polygon fill="#181818" points="565.48,787.37,558.6217,780.3015,560.8409,785.5049,555.6375,787.7241,565.48,787.37" style="stroke:#181818;stroke-width:1;"/><text fill="#000000" font-family="sans-serif" font-size="13" lengthAdjust="spacing" textLength="146.5928" x="430.9546" y="731.8669">eTick [timer &gt;= 600] /</text><text fill="#000000" font-family="sans-serif" font-size="13" lengthAdjust="spacing" textLength="164.7344" x="423.95" y="746.9997">++pill_count, dispense();</text></g><!--link DISPENSE_PILL to DISPENSE_WAIT--><g class="link" data-entity-1="DISPENSE_PILL" data-entity-2="DISPENSE_WAIT" data-source-line="38" data-uid="lnk10" id="link_DISPENSE_PILL_DISPENSE_WAIT"><path d="M629.96,780.38 C629.54,770.72 629.16,760.39 628.95,750.8 C628.64,736.58 628.64,733.02 628.95,718.8 C629.16,709.22 629.2791,704.8743 629.6991,695.2243" fill="none" id="DISPENSE_PILL-to-DISPENSE_WAIT" style="stroke:#181818;stroke-width:1;"/><polygon fill="#181818" points="629.96,689.23,625.5724,698.0476,629.7426,694.2253,633.5649,698.3954,629.96,689.23" style="stroke:#181818;stroke-width:1;"/><text fill="#000000" font-family="sans-serif" font-size="13" lengthAdjust="spacing" textLength="130.8379" x="629.95" y="739.3669">eKey(PIEZO_SENS) /</text></g><!--link DISPENSE_WAIT to STANDBY--><g class="link" data-entity-1="DISPENSE_WAIT" data-entity-2="STANDBY" data-source-line="30" data-uid="lnk9" id="link_DISPENSE_WAIT_STANDBY"><path d="M655.29,610.28 C698.77,533.19 780.68,357.51 698.95,245.73 C676.29,214.73 645.191,199.0042 608.361,189.5342" fill="none" id="DISPENSE_WAIT-to-STANDBY" style="stroke:#181818;stroke-width:1;"/><polygon fill="#181818" points="602.55,188.04,610.2704,194.1552,607.3925,189.2851,612.2626,186.4073,602.55,188.04" style="stroke:#181818;stroke-width:1;"/><text fill="#000000" font-family="sans-serif" font-size="13" lengthAdjust="spacing" textLength="194.5112" x="730.95" y="421.4669">eEnter [m-&gt;pill_count &gt;= 7] /</text></g><!--link DISPENSE_PILL to DISPENSE_FAIL--><g class="link" data-entity-1="DISPENSE_PILL" data-entity-2="DISPENSE_FAIL" data-source-line="39" data-uid="lnk11" id="link_DISPENSE_PILL_DISPENSE_FAIL"><path d="M623.34,859.24 C621.75,874.42 622.32,891.65 628.95,906.01 C634.08,917.1 637.6974,922.8682 646.5974,931.5182" fill="none" id="DISPENSE_PILL-to-DISPENSE_FAIL" style="stroke:#181818;stroke-width:1;"/><polygon fill="#181818" points="650.9,935.7,647.2339,926.5589,647.3145,932.2152,641.6582,932.2958,650.9,935.7" style="stroke:#181818;stroke-width:1;"/><text fill="#000000" font-family="sans-serif" font-size="13" lengthAdjust="spacing" textLength="130.0508" x="629.95" y="902.0769">eTick [timer &gt;= 4] /</text></g><!--link DISPENSE_FAIL to DISPENSE_WAIT--><g class="link" data-entity-1="DISPENSE_FAIL" data-entity-2="DISPENSE_WAIT" data-source-line="46" data-uid="lnk12" id="link_DISPENSE_FAIL_DISPENSE_WAIT"><path d="M748.11,935.59 C755.01,926.58 761.18,916.53 764.95,906.01 C793.02,827.68 808.35,789.79 764.95,718.8 C760.77,711.97 735.0855,698.4631 704.0155,683.6431" fill="none" id="DISPENSE_FAIL-to-DISPENSE_WAIT" style="stroke:#181818;stroke-width:1;"/><polygon fill="#181818" points="698.6,681.06,705.0012,688.545,703.1129,683.2126,708.4453,681.3244,698.6,681.06" style="stroke:#181818;stroke-width:1;"/><text fill="#000000" font-family="sans-serif" font-size="13" lengthAdjust="spacing" textLength="202.4077" x="792.95" y="824.4769">eTick [count &gt;= 10] / led_off();</text></g><!--SRC=[VLLjRzem4FxEhpZrmmJZfR2jgxIAIhHbMbH6gu5KRMs50bp08x4Zssd7VltETXAI9an20dntlhldUUxy-FuPkjrBcCr7qvkhdutq6xu0Zhb62QSWKQ5UHFvgopWkb9R9IZVVHQsBelEShNRa6-9weSLc4sApR1__OJgrYo0e6atsws_Zwzl5zMZYNVqOpRsxgGcvnNrpzj1lmMcZqU128vnqmQM7xwwQ3lmMIlaGip1Sh4J2TGUUEAY4GvGa6lOXCYeUDCErq1JiQoHNx1al-dJXBjm9mM50BjI07oOxnU2i7wdU2VWAfWENESH0WmZWqD735ZdeBSAQgHYv8gYOCXcanhMvc_fzzPbM40W9FYmJhIcH5h14Y0bJvTnylePboFXEqK-OZ6_WTSj2jB6CRtgDHYqu6JahFsHBIMqPI6izKsQEN6DfgR4LD95VyXXrB_DyQnWE8V13XSz7ByZ-KrF7xo12xHLbeEkgpI5FiIIyCo3BH3nPMo7DSWywaPpmj9wlMyJGWgyfeQye8qS8aZ2qRfOJRP8fBUBOH3tnGg0Iz8T2pSbAH35H7Y4dkfdUPfwAAY7U1LLaugaSgcR3gHRhPUkL8gPyIpGSbv3AoBNJmYspLIHFtmPL9gnWDspSUBFxyNGsNZoClFbXm0QjAlZ5YqU1AIO3amdNNop5HleHx11ZbJLjr4js6aCMGcAOSFmOQGjoa2bpr72bcAndpIBw7aB_ekgJIhdTjaur3Ya6Rmobvk-zoUIWHfVjSWYV-tqI8JNIRXUNIQOf0sVrqigoDEe-X9jxpwlIVblrt2YDwivoARlE5E0Bohs1zcEVvBGIV9tk5oEeG8geE0iMw9vB9DbcMvl93f1FAdS9jluBnIETPQdjHcewbPj9e8DpouXgPHndnDjA50WgiaXd1k__w2nHK4TdVedRJkNperA-zyQ_xXOpEc-LD52D-ZhowZJmwJzSfINbAyXXH6FjOEhay33yAxBf9tDYjvE0DMgaTyjifW3SWqKhNXMG9tzANSGoApDV1sApG2c5RBOwu1HM1hRKL_anxX3CDgJ6lJ8rrb2BiqCiL_V03arXvHn1Byta1THYeNUB2RNU_D2d5xULxv3qFJnpqklz0m00]--></g></svg>