<svg xmlns="http://www.w3.org/2000/svg" xmlns:xlink="http://www.w3.org/1999/xlink" contentStyleType="text/css" data-diagram-type="STATE" height="1020px" preserveAspectRatio="none" style="width:1112px;height:1020px;background:#FFFFFF;" version="1.1" viewBox="0 0 1112 1020" width="1112px" zoomAndPan="magnify"><defs/><g><g id="STANDBY"><rect fill="#F1F1F1" height="78.2031" rx="12.5" ry="12.5" style="stroke:#181818;stroke-width:0.5;" width="344.709" x="337.63" y="137.53"/><line style="stroke:#181818;stroke-width:0.5;" x1="337.63" x2="682.339" y1="163.8269" y2="163.8269"/><text fill="#000000" font-family="sans-serif" font-size="14" lengthAdjust="spacing" textLength="66.4248" x="476.7721" y="155.5251">STANDBY</text><text fill="#000000" font-family="sans-serif" font-size="12" lengthAdjust="spacing" textLength="229.5762" x="342.63" y="179.9655">eEnter / reset_machine(m), timer = 0;</text><text fill="#000000" font-family="sans-serif" font-size="12" lengthAdjust="spacing" textLength="324.709" x="342.63" y="193.9343">eTick / led_toggle(); send_msg(EMPTY) [timer&gt;=600];</text><text fill="#000000" font-family="sans-serif" font-size="12" lengthAdjust="spacing" textLength="95.3086" x="342.63" y="207.903">eExit / led_off();</text></g><g class="entity" data-entity="N1" data-source-line="8" data-uid="ent0003" id="entity_N1"><path d="M555.36,6 L555.36,76.5313 L884.6022,76.5313 L884.6022,16 L874.6022,6 L555.36,6" fill="#FEFFDD" style="stroke:#181818;stroke-width:0.5;"/><path d="M874.6022,6 L874.6022,16 L884.6022,16 L874.6022,6" fill="#FEFFDD" style="stroke:#181818;stroke-width:1;"/><text fill="#000000" font-family="sans-serif" font-size="13" lengthAdjust="spacing" textLength="216.9438" x="565.4923" y="23.0669">- struct Machine, jossa pill_count,</text><text fill="#000000" font-family="sans-serif" font-size="13" lengthAdjust="spacing" textLength="210.7104" x="565.4923" y="38.1997">sun muut yleiset tiedot stateille.</text><text fill="#000000" font-family="sans-serif" font-size="13" lengthAdjust="spacing" textLength="180.3687" x="565.4923" y="53.3325">- Olkoon 1 tick aluksi 50ms.</text><text fill="#000000" font-family="sans-serif" font-size="13" lengthAdjust="spacing" textLength="304.1099" x="565.4923" y="68.4653">- send_msg() on viestin l&#228;hetys LoRa verkkoon</text></g><g id="CHECK_CALIBRATION"><rect fill="#F1F1F1" height="78.2031" rx="12.5" ry="12.5" style="stroke:#181818;stroke-width:0.5;" width="169.4678" x="412.25" y="296.46"/><line style="stroke:#181818;stroke-width:0.5;" x1="412.25" x2="581.7178" y1="322.7569" y2="322.7569"/><text fill="#000000" font-family="sans-serif" font-size="14" lengthAdjust="spacing" textLength="149.4678" x="422.25" y="314.4551">CHECK_CALIBRATION</text><text fill="#000000" font-family="sans-serif" font-size="12" lengthAdjust="spacing" textLength="117.2813" x="417.25" y="338.8955">eEnter / calibrate();</text><text fill="#000000" font-family="sans-serif" font-size="12" lengthAdjust="spacing" textLength="39.4512" x="417.25" y="352.8643">eTick /</text><text fill="#000000" font-family="sans-serif" font-size="12" lengthAdjust="spacing" textLength="37.9629" x="417.25" y="366.833">eExit /</text></g><g id="CALIBRATED"><rect fill="#F1F1F1" height="78.2031" rx="12.5" ry="12.5" style="stroke:#181818;stroke-width:0.5;" width="277.332" x="363.32" y="455.4"/><line style="stroke:#181818;stroke-width:0.5;" x1="363.32" x2="640.652" y1="481.6969" y2="481.6969"/><text fill="#000000" font-family="sans-serif" font-size="14" lengthAdjust="spacing" textLength="88.3682" x="457.8019" y="473.3951">CALIBRATED</text><text fill="#000000" font-family="sans-serif" font-size="12" lengthAdjust="spacing" textLength="257.332" x="368.32" y="497.8355">eEnter / led_on(); send_msg(CALIBRATED);</text><text fill="#000000" font-family="sans-serif" font-size="12" lengthAdjust="spacing" textLength="39.4512" x="368.32" y="511.8043">eTick /</text><text fill="#000000" font-family="sans-serif" font-size="12" lengthAdjust="spacing" textLength="95.3086" x="368.32" y="525.773">eExit / led_off();</text></g><g id="DISPENSE_WAIT"><rect fill="#F1F1F1" height="78.2031" rx="12.5" ry="12.5" style="stroke:#181818;stroke-width:0.5;" width="338.9492" x="456.51" y="610.6"/><line style="stroke:#181818;stroke-width:0.5;" x1="456.51" x2="795.4592" y1="636.8969" y2="636.8969"/><text fill="#000000" font-family="sans-serif" font-size="14" lengthAdjust="spacing" textLength="112.3896" x="569.7898" y="628.5951">DISPENSE_WAIT</text><text fill="#000000" font-family="sans-serif" font-size="12" lengthAdjust="spacing" textLength="318.9492" x="461.51" y="653.0355">eEnter / make_timeout_stamp(); send_msg(STATUS);</text><text fill="#000000" font-family="sans-serif" font-size="12" lengthAdjust="spacing" textLength="39.4512" x="461.51" y="667.0043">eTick /</text><text fill="#000000" font-family="sans-serif" font-size="12" lengthAdjust="spacing" textLength="37.9629" x="461.51" y="680.973">eExit /</text></g><g id="DISPENSE_PILL"><rect fill="#F1F1F1" height="78.2031" rx="12.5" ry="12.5" style="stroke:#181818;stroke-width:0.5;" width="132.6699" x="559.65" y="780.8"/><line style="stroke:#181818;stroke-width:0.5;" x1="559.65" x2="692.3199" y1="807.0969" y2="807.0969"/><text fill="#000000" font-family="sans-serif" font-size="14" lengthAdjust="spacing" textLength="104.46" x="573.755" y="798.7951">DISPENSE_PILL</text><text fill="#000000" font-family="sans-serif" font-size="12" lengthAdjust="spacing" textLength="112.6699" x="564.65" y="823.2355">eEnter / timer = 0;</text><text fill="#000000" font-family="sans-serif" font-size="12" lengthAdjust="spacing" textLength="99.4629" x="564.65" y="837.2043">eTick / ++timer;</text><text fill="#000000" font-family="sans-serif" font-size="12" lengthAdjust="spacing" textLength="37.9629" x="564.65" y="851.173">eExit /</text></g><g id="DISPENSE_FAIL"><rect fill="#F1F1F1" height="78.2031" rx="12.5" ry="12.5" style="stroke:#181818;stroke-width:0.5;" width="269.2754" x="682.35" y="936.01"/><line style="stroke:#181818;stroke-width:0.5;" x1="682.35" x2="951.6254" y1="962.3069" y2="962.3069"/><text fill="#000000" font-family="sans-serif" font-size="14" lengthAdjust="spacing" textLength="105.8477" x="764.0639" y="954.0051">DISPENSE_FAIL</text><text fill="#000000" font-family="sans-serif" font-size="12" lengthAdjust="spacing" textLength="249.2754" x="687.35" y="978.4455">eEnter / timer = 0; send_msg(DISP_FAIL);</text><text fill="#000000" font-family="sans-serif" font-size="12" lengthAdjust="spacing" textLength="178.7871" x="687.35" y="992.4143">eTick / led_toggle(), ++timer;</text><text fill="#000000" font-family="sans-serif" font-size="12" lengthAdjust="spacing" textLength="95.3086" x="687.35" y="1006.383">eExit / led_off();</text></g><ellipse cx="509.98" cy="41.26" fill="#222222" rx="10" ry="10" style="stroke:#222222;stroke-width:1;"/><g class="entity" data-entity="GMN2" data-source-line="9" data-uid="ent0003" id="entity_GMN2"><path d="M51.79,148.93 L51.79,204.3284 A0,0 0 0 0 51.79,204.3284 L302.1816,204.3284 A0,0 0 0 0 302.1816,204.3284 L302.1816,180.63 L337.36,176.63 L302.1816,172.63 L302.1816,158.93 L292.1816,148.93 L51.79,148.93 A0,0 0 0 0 51.79,148.93" fill="#FEFFDD" style="stroke:#181818;stroke-width:0.5;"/><path d="M292.1816,148.93 L292.1816,158.93 L302.1816,158.93 L292.1816,148.93" fill="#FEFFDD" style="stroke:#181818;stroke-width:0.5;"/><text fill="#000000" font-family="sans-serif" font-size="13" lengthAdjust="spacing" textLength="195.3491" x="57.79" y="165.9969">When the dispenser is started</text><text fill="#000000" font-family="sans-serif" font-size="13" lengthAdjust="spacing" textLength="221.127" x="61.9223" y="181.1297">it waits for a button to be pressed</text><text fill="#000000" font-family="sans-serif" font-size="13" lengthAdjust="spacing" textLength="210.4438" x="61.9223" y="196.2625">and blinks an LED while waiting.</text></g><g class="entity" data-entity="GMN5" data-source-line="17" data-uid="ent0006" id="entity_GMN5"><path d="M31.03,292.73 L31.03,378.3941 A0,0 0 0 0 31.03,378.3941 L376.9348,378.3941 A0,0 0 0 0 376.9348,378.3941 L376.9348,339.57 L411.95,335.57 L376.9348,331.57 L376.9348,302.73 L366.9348,292.73 L31.03,292.73 A0,0 0 0 0 31.03,292.73" fill="#FEFFDD" style="stroke:#181818;stroke-width:0.5;"/><path d="M366.9348,292.73 L366.9348,302.73 L376.9348,302.73 L366.9348,292.73" fill="#FEFFDD" style="stroke:#181818;stroke-width:0.5;"/><text fill="#000000" font-family="sans-serif" font-size="13" lengthAdjust="spacing" textLength="272.689" x="37.03" y="309.7969">When the button is pressed the dispenser</text><text fill="#000000" font-family="sans-serif" font-size="13" lengthAdjust="spacing" textLength="219.0767" x="41.1623" y="324.9297">is calibrated by turning the wheel</text><text fill="#000000" font-family="sans-serif" font-size="13" lengthAdjust="spacing" textLength="255.0488" x="41.1623" y="340.0625">at least one full turn and then stopping</text><text fill="#000000" font-family="sans-serif" font-size="13" lengthAdjust="spacing" textLength="263.0723" x="41.1623" y="355.1953">the wheel so that the compartment with</text><text fill="#000000" font-family="sans-serif" font-size="13" lengthAdjust="spacing" textLength="320.7725" x="41.1623" y="370.3281">the sensor opening is aligned with the drop tube.</text></g><g class="entity" data-entity="GMN8" data-source-line="24" data-uid="ent0009" id="entity_GMN8"><path d="M6,474.37 L6,514.6356 A0,0 0 0 0 6,514.6356 L327.9678,514.6356 A0,0 0 0 0 327.9678,514.6356 L327.9678,498.5 L362.88,494.5 L327.9678,490.5 L327.9678,484.37 L317.9678,474.37 L6,474.37 A0,0 0 0 0 6,474.37" fill="#FEFFDD" style="stroke:#181818;stroke-width:0.5;"/><path d="M317.9678,474.37 L317.9678,484.37 L327.9678,484.37 L317.9678,474.37" fill="#FEFFDD" style="stroke:#181818;stroke-width:0.5;"/><text fill="#000000" font-family="sans-serif" font-size="13" lengthAdjust="spacing" textLength="232.9019" x="12" y="491.4369">After calibration the program keeps</text><text fill="#000000" font-family="sans-serif" font-size="13" lengthAdjust="spacing" textLength="296.8354" x="16.1323" y="506.5697">the LED on until user presses another button.</text></g><g class="entity" data-entity="GMN11" data-source-line="32" data-uid="ent0012" id="entity_GMN11"><path d="M117.98,629.57 L117.98,669.8356 A0,0 0 0 0 117.98,669.8356 L421.9903,669.8356 A0,0 0 0 0 421.9903,669.8356 L421.9903,653.7 L456.08,649.7 L421.9903,645.7 L421.9903,639.57 L411.9903,629.57 L117.98,629.57 A0,0 0 0 0 117.98,629.57" fill="#FEFFDD" style="stroke:#181818;stroke-width:0.5;"/><path d="M411.9903,629.57 L411.9903,639.57 L421.9903,639.57 L411.9903,629.57" fill="#FEFFDD" style="stroke:#181818;stroke-width:0.5;"/><text fill="#000000" font-family="sans-serif" font-size="13" lengthAdjust="spacing" textLength="184.9136" x="123.98" y="646.6369">Then it dispenses pills every</text><text fill="#000000" font-family="sans-serif" font-size="13" lengthAdjust="spacing" textLength="278.8779" x="128.1123" y="661.7697">30 seconds starting from the button press.</text></g><g class="entity" data-entity="GMN14" data-source-line="33" data-uid="ent0015" id="entity_GMN14"><path d="M830.63,622 L830.63,645.7 L795.87,649.7 L830.63,653.7 L830.63,677.3984 A0,0 0 0 0 830.63,677.3984 L1085.338,677.3984 A0,0 0 0 0 1085.338,677.3984 L1085.338,632 L1075.338,622 L830.63,622 A0,0 0 0 0 830.63,622" fill="#FEFFDD" style="stroke:#181818;stroke-width:0.5;"/><path d="M1075.338,622 L1075.338,632 L1085.338,632 L1075.338,622" fill="#FEFFDD" style="stroke:#181818;stroke-width:0.5;"/><text fill="#000000" font-family="sans-serif" font-size="13" lengthAdjust="spacing" textLength="229.5757" x="836.63" y="639.0669">When all pills have been dispensed</text><text fill="#000000" font-family="sans-serif" font-size="13" lengthAdjust="spacing" textLength="148.605" x="840.7623" y="654.1997">(wheel turned 7 times)</text><text fill="#000000" font-family="sans-serif" font-size="13" lengthAdjust="spacing" textLength="159.6816" x="840.7623" y="669.3325">the program starts over.</text></g><g class="entity" data-entity="GMN17" data-source-line="41" data-uid="ent0018" id="entity_GMN17"><path d="M275.28,792.21 L275.28,847.6084 A0,0 0 0 0 275.28,847.6084 L524.6814,847.6084 A0,0 0 0 0 524.6814,847.6084 L524.6814,823.91 L559.25,819.91 L524.6814,815.91 L524.6814,802.21 L514.6814,792.21 L275.28,792.21 A0,0 0 0 0 275.28,792.21" fill="#FEFFDD" style="stroke:#181818;stroke-width:0.5;"/><path d="M514.6814,792.21 L514.6814,802.21 L524.6814,802.21 L514.6814,792.21" fill="#FEFFDD" style="stroke:#181818;stroke-width:0.5;"/><text fill="#000000" font-family="sans-serif" font-size="13" lengthAdjust="spacing" textLength="171.3613" x="281.28" y="809.2769">When the wheel is turned,</text><text fill="#000000" font-family="sans-serif" font-size="13" lengthAdjust="spacing" textLength="220.1367" x="285.4123" y="824.4097">the piezo sensor is used to detect</text><text fill="#000000" font-family="sans-serif" font-size="13" lengthAdjust="spacing" textLength="190.2773" x="285.4123" y="839.5425">if a pill was dispensed or not.</text></g><g class="entity" data-entity="GMN20" data-source-line="48" data-uid="ent0021" id="entity_GMN20"><path d="M270.49,962.54 L270.49,987.6728 A0,0 0 0 0 270.49,987.6728 L647.4729,987.6728 A0,0 0 0 0 647.4729,987.6728 L647.4729,980.54 L682.14,975.11 L647.4729,972.54 L647.4729,972.54 L637.4729,962.54 L270.49,962.54 A0,0 0 0 0 270.49,962.54" fill="#FEFFDD" style="stroke:#181818;stroke-width:0.5;"/><path d="M637.4729,962.54 L637.4729,972.54 L647.4729,972.54 L637.4729,962.54" fill="#FEFFDD" style="stroke:#181818;stroke-width:0.5;"/><text fill="#000000" font-family="sans-serif" font-size="13" lengthAdjust="spacing" textLength="355.9829" x="276.49" y="979.6069">If no pill was detected (200ms) the LED blinks 5 times.</text></g><!--link *start* to STANDBY--><g class="link" data-entity-1=".start." data-entity-2="STANDBY" data-source-line="1" data-uid="lnk3" id="link_.start._STANDBY"><path d="M509.98,51.43 C509.98,68.85 509.98,101.64 509.98,131.27" fill="none" id="*start*-to-STANDBY" style="stroke:#181818;stroke-width:1;"/><polygon fill="#181818" points="509.98,137.27,513.98,128.27,509.98,132.27,505.98,128.27,509.98,137.27" style="stroke:#181818;stroke-width:1;"/></g><!--link STANDBY to CHECK_CALIBRATION--><g class="link" data-entity-1="STANDBY" data-entity-2="CHECK_CALIBRATION" data-source-line="5" data-uid="lnk4" id="link_STANDBY_CHECK_CALIBRATION"><path d="M443.47,216.14 C433.99,224.63 425.57,234.51 419.98,245.73 C410.9,264.01 416.3247,277.4121 431.5947,292.0221" fill="none" id="STANDBY-to-CHECK_CALIBRATION" style="stroke:#181818;stroke-width:1;"/><polygon fill="#181818" points="435.93,296.17,432.1923,287.0579,432.3173,292.7134,426.6618,292.8383,435.93,296.17" style="stroke:#181818;stroke-width:1;"/><text fill="#000000" font-family="sans-serif" font-size="13" lengthAdjust="spacing" textLength="45.8872" x="420.98" y="258.7969">eSW0 /</text></g><!--link CHECK_CALIBRATION to STANDBY--><g class="link" data-entity-1="CHECK_CALIBRATION" data-entity-2="STANDBY" data-source-line="14" data-uid="lnk5" id="link_CHECK_CALIBRATION_STANDBY"><path d="M500.18,296.03 C502.19,271.68 504.2958,246.3196 506.3058,221.9996" fill="none" id="CHECK_CALIBRATION-to-STANDBY" style="stroke:#181818;stroke-width:1;"/><polygon fill="#181818" points="506.8,216.02,502.0723,224.6599,506.3882,221.003,510.0451,225.3189,506.8,216.02" style="stroke:#181818;stroke-width:1;"/><text fill="#000000" font-family="sans-serif" font-size="13" lengthAdjust="spacing" textLength="211.4849" x="505.98" y="258.7969">eTick [m-&gt;calibrated == false] /</text></g><!--link CHECK_CALIBRATION to CALIBRATED--><g class="link" data-entity-1="CHECK_CALIBRATION" data-entity-2="CALIBRATED" data-source-line="15" data-uid="lnk6" id="link_CHECK_CALIBRATION_CALIBRATED"><path d="M494.14,375.06 C493.38,390.69 493.02,408.91 493.98,425.4 C494.55,435.02 494.8744,439.4193 495.9844,449.0693" fill="none" id="CHECK_CALIBRATION-to-CALIBRATED" style="stroke:#181818;stroke-width:1;"/><polygon fill="#181818" points="496.67,455.03,499.6153,445.6319,496.0986,450.0628,491.6678,446.546,496.67,455.03" style="stroke:#181818;stroke-width:1;"/><text fill="#000000" font-family="sans-serif" font-size="13" lengthAdjust="spacing" textLength="207.2383" x="494.98" y="421.4669">eTick [m-&gt;calibrated == true] /</text></g><!--link CALIBRATED to DISPENSE_WAIT--><g class="link" data-entity-1="CALIBRATED" data-entity-2="DISPENSE_WAIT" data-source-line="22" data-uid="lnk7" id="link_CALIBRATED_DISPENSE_WAIT"><path d="M500.46,534.02 C501.54,549.57 505.04,567.02 513.98,580.6 C521.49,592 526.8243,598.2076 537.9543,606.5276" fill="none" id="CALIBRATED-to-DISPENSE_WAIT" style="stroke:#181818;stroke-width:1;"/><polygon fill="#181818" points="542.76,610.12,537.9464,601.5276,538.7553,607.1263,533.1565,607.9352,542.76,610.12" style="stroke:#181818;stroke-width:1;"/><text fill="#000000" font-family="sans-serif" font-size="13" lengthAdjust="spacing" textLength="204.1089" x="514.98" y="576.6669">eSW1 / send_msg(DISP_START)</text></g><!--link DISPENSE_WAIT to DISPENSE_PILL--><g class="link" data-entity-1="DISPENSE_WAIT" data-entity-2="DISPENSE_PILL" data-source-line="29" data-uid="lnk8" id="link_DISPENSE_WAIT_DISPENSE_PILL"><path d="M456.18,686.12 C409.23,697.57 369.07,709.66 361.98,718.8 C353.27,730.05 352.79,739.95 361.98,750.8 C388.2,781.75 503.19,768.99 541.98,780.8 C547.65,782.53 547.8362,782.4059 553.5862,784.6059" fill="none" id="DISPENSE_WAIT-to-DISPENSE_PILL" style="stroke:#181818;stroke-width:1;"/><polygon fill="#181818" points="559.19,786.75,552.2136,779.798,554.5201,784.9633,549.3549,787.2698,559.19,786.75" style="stroke:#181818;stroke-width:1;"/><text fill="#000000" font-family="sans-serif" font-size="13" lengthAdjust="spacing" textLength="214.8682" x="362.98" y="731.8669">eTick [time_reached(TIMEOUT)] /</text><text fill="#000000" font-family="sans-serif" font-size="13" lengthAdjust="spacing" textLength="96.2622" x="424.3491" y="746.9997">++turn_count;</text></g><!--link DISPENSE_PILL to DISPENSE_WAIT--><g class="link" data-entity-1="DISPENSE_PILL" data-entity-2="DISPENSE_WAIT" data-source-line="38" data-uid="lnk10" id="link_DISPENSE_PILL_DISPENSE_WAIT"><path d="M623.99,780.38 C623.57,770.72 623.19,760.39 622.98,750.8 C622.67,736.58 622.67,733.02 622.98,718.8 C623.19,709.22 623.3091,704.8743 623.7291,695.2243" fill="none" id="DISPENSE_PILL-to-DISPENSE_WAIT" style="stroke:#181818;stroke-width:1;"/><polygon fill="#181818" points="623.99,689.23,619.6024,698.0476,623.7726,694.2253,627.5949,698.3954,623.99,689.23" style="stroke:#181818;stroke-width:1;"/><text fill="#000000" font-family="sans-serif" font-size="13" lengthAdjust="spacing" textLength="282.5977" x="623.98" y="739.3669">ePiezo / ++pill_count; send_msg(DISP_OK);</text></g><!--link DISPENSE_WAIT to STANDBY--><g class="link" data-entity-1="DISPENSE_WAIT" data-entity-2="STANDBY" data-source-line="30" data-uid="lnk9" id="link_DISPENSE_WAIT_STANDBY"><path d="M699.27,610.26 C709.22,601.85 718.03,591.98 723.98,580.6 C792.94,448.71 811.83,365.87 723.98,245.73 C713,230.7 703.8599,221.9036 687.8099,212.6636" fill="none" id="DISPENSE_WAIT-to-STANDBY" style="stroke:#181818;stroke-width:1;"/><polygon fill="#181818" points="682.61,209.67,688.4141,217.6269,686.9432,212.1646,692.4055,210.6938,682.61,209.67" style="stroke:#181818;stroke-width:1;"/><text fill="#000000" font-family="sans-serif" font-size="13" lengthAdjust="spacing" textLength="321.769" x="782.98" y="421.4669">eEnter [m-&gt;pill_count &gt;= 7] / send_msg(EMPTY);</text></g><!--link DISPENSE_PILL to DISPENSE_FAIL--><g class="link" data-entity-1="DISPENSE_PILL" data-entity-2="DISPENSE_FAIL" data-source-line="39" data-uid="lnk11" id="link_DISPENSE_PILL_DISPENSE_FAIL"><path d="M673.69,859.17 C702.75,882.48 735.0792,908.4163 764.2092,931.7763" fill="none" id="DISPENSE_PILL-to-DISPENSE_FAIL" style="stroke:#181818;stroke-width:1;"/><polygon fill="#181818" points="768.89,935.53,764.3712,926.779,764.9893,932.402,759.3663,933.0201,768.89,935.53" style="stroke:#181818;stroke-width:1;"/><text fill="#000000" font-family="sans-serif" font-size="13" lengthAdjust="spacing" textLength="130.0508" x="727.98" y="902.0769">eTick [timer &gt;= 4] /</text></g><!--link DISPENSE_FAIL to DISPENSE_WAIT--><g class="link" data-entity-1="DISPENSE_FAIL" data-entity-2="DISPENSE_WAIT" data-source-line="46" data-uid="lnk12" id="link_DISPENSE_FAIL_DISPENSE_WAIT"><path d="M852.35,935.83 C897.28,882.45 963.07,784.8 910.98,718.8 C906.69,713.36 860.2312,701.5379 801.5812,688.2279" fill="none" id="DISPENSE_FAIL-to-DISPENSE_WAIT" style="stroke:#181818;stroke-width:1;"/><polygon fill="#181818" points="795.73,686.9,803.6216,692.7926,800.606,688.0066,805.3921,684.991,795.73,686.9" style="stroke:#181818;stroke-width:1;"/><text fill="#000000" font-family="sans-serif" font-size="13" lengthAdjust="spacing" textLength="146.5928" x="929.98" y="824.4769">eTick [timer &gt;= 200] /</text></g><!--SRC=[VLRhRk965FxFKnpjB-W28UrkLoeY4fjG5IsvA7WLhPB8ClWOJndFM9vnqlHv-YPziPuPUunlwI_0v_vzvtpcyQTdc4mkOEijRww-_XYKd_0Ru4fepE0CCbIe_IJOnqpWC1cDGRE4B0kOpUl-7jiVoPrZw6jvE70SZkQWK8H-eWx3rVMTzsC4ZpRsOl7hRFRSY5xznNGPBQE8GYkZQU_oZzNbD_zokLb_lLzwwziR4x9zcC7PO30GKYDyW0aedULx3TT5gsFuKoeLGCeuz_So5teCJm9KBY39Smrl71bDHjDWA3K51nh95QV6QmAt_2YbW7Eoqrm1pu-AmUTPegRMN0qs0l9wOQWq4y3__IT6_QPW8-y3UC7iQ99yW431pNdHACT8WupWDFj3Z09qZ10obQ9GX2rJffzCOsYQ8MHU0wOLH3A307QvrbHJIzWXf4IFAjm24SAECt5Kz1KsgojuZHb76yl4OJeOzCBeUDu7dEqo0i60t-jPClnE6ajWZwssNbMInsHoKTKBOR60AE0AdzzDu7xJKE_d8FfjYYRGVTrMa9TO4juEo2OHJzPMAxDx0vrdWl2qdgyn8hVWQoeOAAee4AASS-jcET6ccD8oJKtKawW5Aaa_ADGysSia9SeJ54Gtqx7pf4rJnBkaZamyjKFT70JrOhrilvbCgTuE3SSDf1ovzgv4uo9FZeRlBhvdxLIT2wtP3KTNw-tTwcQxyX-MQwyuq7CAg0eQkq-RSE-DsXJL2oqZqxA3dCa2XJIJXon8u8YOAWUDsN6oqsap3hdXgs3H780aXwpabs3fDEUGIO8Z-aQLPAvzEheaRQ14_NhVjpHi9u6xXcxc0gYMeO7GtNgpEIsogUvdIBA5uT1RNwzkltiZMcGQy-D7iqQ5VCrxCdRqsbp5IV7WOW5Vdkia53eyRn7Gdi4pAqjJk4DGLaKL84dQcq7_bncbt4iHba9bDZFAP58_Ail5j2YKiKFSMybUOa3dKXI8WnUAHthcIbjf6nRdOh2W1r_i6qYDt1gutR2TA93KP9rn1xPZlFRwwYVa30XsuzJZKCfSytdlzjyn_5lQN2S-vgrhkFqsclzVhj-NwzQUP8RIJrsLQpTQALo17Ab60Twu0issLueBcNChVX92r4WlKIDy4HHlJtg3g1eVv4-bwmYxDhi8j-OrZlM96_Cr_pkCUqYewdIagEdIoqSBmv_f7yZxA9QLrX6DMiF0OaCG32aweGLq8bI-TZyNYpdz3m00]--></g></svg>