<svg xmlns="http://www.w3.org/2000/svg" xmlns:xlink="http://www.w3.org/1999/xlink" contentStyleType="text/css" data-diagram-type="STATE" height="1005px" preserveAspectRatio="none" style="width:979px;height:1005px;background:#FFFFFF;" version="1.1" viewBox="0 0 979 1005" width="979px" zoomAndPan="magnify"><defs/><g><g id="STANDBY"><rect fill="#F1F1F1" height="78.2031" rx="12.5" ry="12.5" style="stroke:#181818;stroke-width:0.5;" width="234.7402" x="366.58" y="137.53"/><line style="stroke:#181818;stroke-width:0.5;" x1="366.58" x2="601.3202" y1="163.8269" y2="163.8269"/><text fill="#000000" font-family="sans-serif" font-size="14" lengthAdjust="spacing" textLength="66.4248" x="450.7377" y="155.5251">STANDBY</text><text fill="#000000" font-family="sans-serif" font-size="12" lengthAdjust="spacing" textLength="214.7402" x="371.58" y="179.9655">eEnter / reset_machine_struct(&amp;m);</text><text fill="#000000" font-family="sans-serif" font-size="12" lengthAdjust="spacing" textLength="119.0039" x="371.58" y="193.9343">eTick / led_toggle();</text><text fill="#000000" font-family="sans-serif" font-size="12" lengthAdjust="spacing" textLength="95.3086" x="371.58" y="207.903">eExit / led_off();</text></g><g class="entity" data-entity="N1" data-source-line="8" data-uid="ent0003" id="entity_N1"><path d="M528.91,6 L528.91,76.5313 L770.9862,76.5313 L770.9862,16 L760.9862,6 L528.91,6" fill="#FEFFDD" style="stroke:#181818;stroke-width:0.5;"/><path d="M760.9862,6 L760.9862,16 L770.9862,16 L760.9862,6" fill="#FEFFDD" style="stroke:#181818;stroke-width:1;"/><text fill="#000000" font-family="sans-serif" font-size="13" lengthAdjust="spacing" textLength="216.9438" x="534.91" y="23.0669">- struct Machine, jossa pill_count,</text><text fill="#000000" font-family="sans-serif" font-size="13" lengthAdjust="spacing" textLength="210.7104" x="539.0423" y="38.1997">sun muut yleiset tiedot stateille.</text><text fill="#000000" font-family="sans-serif" font-size="13" lengthAdjust="spacing" textLength="4.1323" x="534.91" y="53.3325">&#160;</text><text fill="#000000" font-family="sans-serif" font-size="13" lengthAdjust="spacing" textLength="180.3687" x="539.0423" y="68.4653">- Olkoon 1 tick aluksi 50ms.</text></g><g id="CHECK_CALIBRATION"><rect fill="#F1F1F1" height="78.2031" rx="12.5" ry="12.5" style="stroke:#181818;stroke-width:0.5;" width="169.4678" x="387.22" y="296.46"/><line style="stroke:#181818;stroke-width:0.5;" x1="387.22" x2="556.6878" y1="322.7569" y2="322.7569"/><text fill="#000000" font-family="sans-serif" font-size="14" lengthAdjust="spacing" textLength="149.4678" x="397.22" y="314.4551">CHECK_CALIBRATION</text><text fill="#000000" font-family="sans-serif" font-size="12" lengthAdjust="spacing" textLength="47.4492" x="392.22" y="338.8955">eEnter /</text><text fill="#000000" font-family="sans-serif" font-size="12" lengthAdjust="spacing" textLength="126.041" x="392.22" y="352.8643">eTick / check_calib();</text><text fill="#000000" font-family="sans-serif" font-size="12" lengthAdjust="spacing" textLength="37.9629" x="392.22" y="366.833">eExit /</text></g><g id="CALIBRATED"><rect fill="#F1F1F1" height="78.2031" rx="12.5" ry="12.5" style="stroke:#181818;stroke-width:0.5;" width="123.9512" x="438.98" y="455.4"/><line style="stroke:#181818;stroke-width:0.5;" x1="438.98" x2="562.9312" y1="481.6969" y2="481.6969"/><text fill="#000000" font-family="sans-serif" font-size="14" lengthAdjust="spacing" textLength="88.3682" x="456.7715" y="473.3951">CALIBRATED</text><text fill="#000000" font-family="sans-serif" font-size="12" lengthAdjust="spacing" textLength="103.9512" x="443.98" y="497.8355">eEnter / led_on();</text><text fill="#000000" font-family="sans-serif" font-size="12" lengthAdjust="spacing" textLength="39.4512" x="443.98" y="511.8043">eTick /</text><text fill="#000000" font-family="sans-serif" font-size="12" lengthAdjust="spacing" textLength="95.3086" x="443.98" y="525.773">eExit / led_off();</text></g><g id="DISPENSE_WAIT"><rect fill="#F1F1F1" height="78.2031" rx="12.5" ry="12.5" style="stroke:#181818;stroke-width:0.5;" width="143.4043" x="539.25" y="610.6"/><line style="stroke:#181818;stroke-width:0.5;" x1="539.25" x2="682.6543" y1="636.8969" y2="636.8969"/><text fill="#000000" font-family="sans-serif" font-size="14" lengthAdjust="spacing" textLength="112.3896" x="554.7573" y="628.5951">DISPENSE_WAIT</text><text fill="#000000" font-family="sans-serif" font-size="12" lengthAdjust="spacing" textLength="112.6699" x="544.25" y="653.0355">eEnter / timer = 0;</text><text fill="#000000" font-family="sans-serif" font-size="12" lengthAdjust="spacing" textLength="99.4629" x="544.25" y="667.0043">eTick / ++timer;</text><text fill="#000000" font-family="sans-serif" font-size="12" lengthAdjust="spacing" textLength="123.4043" x="544.25" y="680.973">eExit / ++pill_count;</text></g><g id="DISPENSE_PILL"><rect fill="#F1F1F1" height="78.2031" rx="12.5" ry="12.5" style="stroke:#181818;stroke-width:0.5;" width="132.6699" x="544.62" y="765.8"/><line style="stroke:#181818;stroke-width:0.5;" x1="544.62" x2="677.2899" y1="792.0969" y2="792.0969"/><text fill="#000000" font-family="sans-serif" font-size="14" lengthAdjust="spacing" textLength="104.46" x="558.725" y="783.7951">DISPENSE_PILL</text><text fill="#000000" font-family="sans-serif" font-size="12" lengthAdjust="spacing" textLength="112.6699" x="549.62" y="808.2355">eEnter / timer = 0;</text><text fill="#000000" font-family="sans-serif" font-size="12" lengthAdjust="spacing" textLength="99.4629" x="549.62" y="822.2043">eTick / ++timer;</text><text fill="#000000" font-family="sans-serif" font-size="12" lengthAdjust="spacing" textLength="37.9629" x="549.62" y="836.173">eExit /</text></g><g id="DISPENSE_FAIL"><rect fill="#F1F1F1" height="78.2031" rx="12.5" ry="12.5" style="stroke:#181818;stroke-width:0.5;" width="205.291" x="585.31" y="921.01"/><line style="stroke:#181818;stroke-width:0.5;" x1="585.31" x2="790.601" y1="947.3069" y2="947.3069"/><text fill="#000000" font-family="sans-serif" font-size="14" lengthAdjust="spacing" textLength="105.8477" x="635.0317" y="939.0051">DISPENSE_FAIL</text><text fill="#000000" font-family="sans-serif" font-size="12" lengthAdjust="spacing" textLength="185.291" x="590.31" y="963.4455">eEnter / log_error(), count = 0;</text><text fill="#000000" font-family="sans-serif" font-size="12" lengthAdjust="spacing" textLength="180.5977" x="590.31" y="977.4143">eTick / led_toggle(), ++count;</text><text fill="#000000" font-family="sans-serif" font-size="12" lengthAdjust="spacing" textLength="37.9629" x="590.31" y="991.383">eExit /</text></g><ellipse cx="483.95" cy="41.26" fill="#222222" rx="10" ry="10" style="stroke:#222222;stroke-width:1;"/><g class="entity" data-entity="GMN2" data-source-line="9" data-uid="ent0003" id="entity_GMN2"><path d="M80.76,148.93 L80.76,204.3284 A0,0 0 0 0 80.76,204.3284 L331.1516,204.3284 A0,0 0 0 0 331.1516,204.3284 L331.1516,180.63 L366.24,176.63 L331.1516,172.63 L331.1516,158.93 L321.1516,148.93 L80.76,148.93 A0,0 0 0 0 80.76,148.93" fill="#FEFFDD" style="stroke:#181818;stroke-width:0.5;"/><path d="M321.1516,148.93 L321.1516,158.93 L331.1516,158.93 L321.1516,148.93" fill="#FEFFDD" style="stroke:#181818;stroke-width:0.5;"/><text fill="#000000" font-family="sans-serif" font-size="13" lengthAdjust="spacing" textLength="195.3491" x="86.76" y="165.9969">When the dispenser is started</text><text fill="#000000" font-family="sans-serif" font-size="13" lengthAdjust="spacing" textLength="221.127" x="90.8923" y="181.1297">it waits for a button to be pressed</text><text fill="#000000" font-family="sans-serif" font-size="13" lengthAdjust="spacing" textLength="210.4438" x="90.8923" y="196.2625">and blinks an LED while waiting.</text></g><g class="entity" data-entity="GMN5" data-source-line="17" data-uid="ent0006" id="entity_GMN5"><path d="M6,292.73 L6,378.3941 A0,0 0 0 0 6,378.3941 L351.9048,378.3941 A0,0 0 0 0 351.9048,378.3941 L351.9048,339.57 L386.92,335.57 L351.9048,331.57 L351.9048,302.73 L341.9048,292.73 L6,292.73 A0,0 0 0 0 6,292.73" fill="#FEFFDD" style="stroke:#181818;stroke-width:0.5;"/><path d="M341.9048,292.73 L341.9048,302.73 L351.9048,302.73 L341.9048,292.73" fill="#FEFFDD" style="stroke:#181818;stroke-width:0.5;"/><text fill="#000000" font-family="sans-serif" font-size="13" lengthAdjust="spacing" textLength="272.689" x="12" y="309.7969">When the button is pressed the dispenser</text><text fill="#000000" font-family="sans-serif" font-size="13" lengthAdjust="spacing" textLength="219.0767" x="16.1323" y="324.9297">is calibrated by turning the wheel</text><text fill="#000000" font-family="sans-serif" font-size="13" lengthAdjust="spacing" textLength="255.0488" x="16.1323" y="340.0625">at least one full turn and then stopping</text><text fill="#000000" font-family="sans-serif" font-size="13" lengthAdjust="spacing" textLength="263.0723" x="16.1323" y="355.1953">the wheel so that the compartment with</text><text fill="#000000" font-family="sans-serif" font-size="13" lengthAdjust="spacing" textLength="320.7725" x="16.1323" y="370.3281">the sensor opening is aligned with the drop tube.</text></g><g class="entity" data-entity="GMN8" data-source-line="24" data-uid="ent0009" id="entity_GMN8"><path d="M81.97,474.37 L81.97,514.6356 A0,0 0 0 0 81.97,514.6356 L403.9378,514.6356 A0,0 0 0 0 403.9378,514.6356 L403.9378,498.5 L438.59,494.5 L403.9378,490.5 L403.9378,484.37 L393.9378,474.37 L81.97,474.37 A0,0 0 0 0 81.97,474.37" fill="#FEFFDD" style="stroke:#181818;stroke-width:0.5;"/><path d="M393.9378,474.37 L393.9378,484.37 L403.9378,484.37 L393.9378,474.37" fill="#FEFFDD" style="stroke:#181818;stroke-width:0.5;"/><text fill="#000000" font-family="sans-serif" font-size="13" lengthAdjust="spacing" textLength="232.9019" x="87.97" y="491.4369">After calibration the program keeps</text><text fill="#000000" font-family="sans-serif" font-size="13" lengthAdjust="spacing" textLength="296.8354" x="92.1023" y="506.5697">the LED on until user presses another button.</text></g><g class="entity" data-entity="GMN11" data-source-line="32" data-uid="ent0012" id="entity_GMN11"><path d="M199.95,629.57 L199.95,669.8356 A0,0 0 0 0 199.95,669.8356 L503.9603,669.8356 A0,0 0 0 0 503.9603,669.8356 L503.9603,653.7 L538.82,649.7 L503.9603,645.7 L503.9603,639.57 L493.9603,629.57 L199.95,629.57 A0,0 0 0 0 199.95,629.57" fill="#FEFFDD" style="stroke:#181818;stroke-width:0.5;"/><path d="M493.9603,629.57 L493.9603,639.57 L503.9603,639.57 L493.9603,629.57" fill="#FEFFDD" style="stroke:#181818;stroke-width:0.5;"/><text fill="#000000" font-family="sans-serif" font-size="13" lengthAdjust="spacing" textLength="184.9136" x="205.95" y="646.6369">Then it dispenses pills every</text><text fill="#000000" font-family="sans-serif" font-size="13" lengthAdjust="spacing" textLength="278.8779" x="210.0823" y="661.7697">30 seconds starting from the button press.</text></g><g class="entity" data-entity="GMN14" data-source-line="33" data-uid="ent0015" id="entity_GMN14"><path d="M717.6,622 L717.6,645.7 L682.71,649.7 L717.6,653.7 L717.6,677.3984 A0,0 0 0 0 717.6,677.3984 L972.308,677.3984 A0,0 0 0 0 972.308,677.3984 L972.308,632 L962.308,622 L717.6,622 A0,0 0 0 0 717.6,622" fill="#FEFFDD" style="stroke:#181818;stroke-width:0.5;"/><path d="M962.308,622 L962.308,632 L972.308,632 L962.308,622" fill="#FEFFDD" style="stroke:#181818;stroke-width:0.5;"/><text fill="#000000" font-family="sans-serif" font-size="13" lengthAdjust="spacing" textLength="229.5757" x="723.6" y="639.0669">When all pills have been dispensed</text><text fill="#000000" font-family="sans-serif" font-size="13" lengthAdjust="spacing" textLength="148.605" x="727.7323" y="654.1997">(wheel turned 7 times)</text><text fill="#000000" font-family="sans-serif" font-size="13" lengthAdjust="spacing" textLength="159.6816" x="727.7323" y="669.3325">the program starts over.</text></g><g class="entity" data-entity="GMN17" data-source-line="41" data-uid="ent0018" id="entity_GMN17"><path d="M260.25,777.21 L260.25,832.6084 A0,0 0 0 0 260.25,832.6084 L509.6514,832.6084 A0,0 0 0 0 509.6514,832.6084 L509.6514,808.91 L544.22,804.91 L509.6514,800.91 L509.6514,787.21 L499.6514,777.21 L260.25,777.21 A0,0 0 0 0 260.25,777.21" fill="#FEFFDD" style="stroke:#181818;stroke-width:0.5;"/><path d="M499.6514,777.21 L499.6514,787.21 L509.6514,787.21 L499.6514,777.21" fill="#FEFFDD" style="stroke:#181818;stroke-width:0.5;"/><text fill="#000000" font-family="sans-serif" font-size="13" lengthAdjust="spacing" textLength="171.3613" x="266.25" y="794.2769">When the wheel is turned,</text><text fill="#000000" font-family="sans-serif" font-size="13" lengthAdjust="spacing" textLength="220.1367" x="270.3823" y="809.4097">the piezo sensor is used to detect</text><text fill="#000000" font-family="sans-serif" font-size="13" lengthAdjust="spacing" textLength="190.2773" x="270.3823" y="824.5425">if a pill was dispensed or not.</text></g><g class="entity" data-entity="GMN20" data-source-line="48" data-uid="ent0021" id="entity_GMN20"><path d="M173.46,947.54 L173.46,972.6728 A0,0 0 0 0 173.46,972.6728 L550.4429,972.6728 A0,0 0 0 0 550.4429,972.6728 L550.4429,965.54 L585.04,960.11 L550.4429,957.54 L550.4429,957.54 L540.4429,947.54 L173.46,947.54 A0,0 0 0 0 173.46,947.54" fill="#FEFFDD" style="stroke:#181818;stroke-width:0.5;"/><path d="M540.4429,947.54 L540.4429,957.54 L550.4429,957.54 L540.4429,947.54" fill="#FEFFDD" style="stroke:#181818;stroke-width:0.5;"/><text fill="#000000" font-family="sans-serif" font-size="13" lengthAdjust="spacing" textLength="355.9829" x="179.46" y="964.6069">If no pill was detected (200ms) the LED blinks 5 times.</text></g><!--link *start* to STANDBY--><g class="link" data-entity-1=".start." data-entity-2="STANDBY" data-source-line="1" data-uid="lnk3" id="link_.start._STANDBY"><path d="M483.95,51.43 C483.95,68.85 483.95,101.64 483.95,131.27" fill="none" id="*start*-to-STANDBY" style="stroke:#181818;stroke-width:1;"/><polygon fill="#181818" points="483.95,137.27,487.95,128.27,483.95,132.27,479.95,128.27,483.95,137.27" style="stroke:#181818;stroke-width:1;"/></g><!--link STANDBY to CHECK_CALIBRATION--><g class="link" data-entity-1="STANDBY" data-entity-2="CHECK_CALIBRATION" data-source-line="5" data-uid="lnk4" id="link_STANDBY_CHECK_CALIBRATION"><path d="M366.21,211.61 C326.04,224.36 289.7,237.7 283.95,245.73 C279.55,251.88 279.59,256.57 283.95,262.73 C307.09,295.44 331.49,278.53 368.95,292.73 C374.82,294.96 375.264,295.0998 381.334,297.4798" fill="none" id="STANDBY-to-CHECK_CALIBRATION" style="stroke:#181818;stroke-width:1;"/><polygon fill="#181818" points="386.92,299.67,380.0012,292.6607,382.265,297.8448,377.0809,300.1087,386.92,299.67" style="stroke:#181818;stroke-width:1;"/><text fill="#000000" font-family="sans-serif" font-size="13" lengthAdjust="spacing" textLength="155.8984" x="284.95" y="258.7969">eKey(SW0) / calibrate();</text></g><!--link CHECK_CALIBRATION to STANDBY--><g class="link" data-entity-1="CHECK_CALIBRATION" data-entity-2="STANDBY" data-source-line="14" data-uid="lnk5" id="link_CHECK_CALIBRATION_STANDBY"><path d="M474.9,296.03 C476.76,271.68 478.7025,246.3225 480.5625,222.0025" fill="none" id="CHECK_CALIBRATION-to-STANDBY" style="stroke:#181818;stroke-width:1;"/><polygon fill="#181818" points="481.02,216.02,476.3453,224.6888,480.6387,221.0054,484.322,225.2988,481.02,216.02" style="stroke:#181818;stroke-width:1;"/><text fill="#000000" font-family="sans-serif" font-size="13" lengthAdjust="spacing" textLength="183.2378" x="479.95" y="258.7969">eTick [calibrated == false] /</text></g><!--link CHECK_CALIBRATION to CALIBRATED--><g class="link" data-entity-1="CHECK_CALIBRATION" data-entity-2="CALIBRATED" data-source-line="15" data-uid="lnk6" id="link_CHECK_CALIBRATION_CALIBRATED"><path d="M466.46,375 C465.29,390.78 465.32,409.13 468.95,425.4 C471.17,435.34 472.5289,440.087 476.7889,449.467" fill="none" id="CHECK_CALIBRATION-to-CALIBRATED" style="stroke:#181818;stroke-width:1;"/><polygon fill="#181818" points="479.27,454.93,479.1904,445.0815,477.2024,450.3775,471.9064,448.3895,479.27,454.93" style="stroke:#181818;stroke-width:1;"/><text fill="#000000" font-family="sans-serif" font-size="13" lengthAdjust="spacing" textLength="178.9912" x="469.95" y="421.4669">eTick [calibrated == true] /</text></g><!--link CALIBRATED to DISPENSE_WAIT--><g class="link" data-entity-1="CALIBRATED" data-entity-2="DISPENSE_WAIT" data-source-line="22" data-uid="lnk7" id="link_CALIBRATED_DISPENSE_WAIT"><path d="M528.43,533.76 C545.16,557.07 562.9805,581.8862 579.7605,605.2562" fill="none" id="CALIBRATED-to-DISPENSE_WAIT" style="stroke:#181818;stroke-width:1;"/><polygon fill="#181818" points="583.26,610.13,581.26,600.4863,580.3438,606.0685,574.7616,605.1523,583.26,610.13" style="stroke:#181818;stroke-width:1;"/><text fill="#000000" font-family="sans-serif" font-size="13" lengthAdjust="spacing" textLength="80.2471" x="559.95" y="576.6669">eKey(SW1) /</text></g><!--link DISPENSE_WAIT to DISPENSE_PILL--><g class="link" data-entity-1="DISPENSE_WAIT" data-entity-2="DISPENSE_PILL" data-source-line="29" data-uid="lnk8" id="link_DISPENSE_WAIT_DISPENSE_PILL"><path d="M539.11,683.16 C533.36,685.23 527.6,687.15 521.95,688.8 C443.02,711.95 289.68,673.14 342.95,735.8 C369.79,767.37 487.3,753.81 526.95,765.8 C532.62,767.52 532.8062,767.3859 538.5562,769.5859" fill="none" id="DISPENSE_WAIT-to-DISPENSE_PILL" style="stroke:#181818;stroke-width:1;"/><polygon fill="#181818" points="544.16,771.73,537.1836,764.778,539.4901,769.9433,534.3249,772.2498,544.16,771.73" style="stroke:#181818;stroke-width:1;"/><text fill="#000000" font-family="sans-serif" font-size="13" lengthAdjust="spacing" textLength="223.1455" x="343.95" y="731.8669">eTick [timer &gt;= 600] / dispense();</text></g><!--link DISPENSE_PILL to DISPENSE_WAIT--><g class="link" data-entity-1="DISPENSE_PILL" data-entity-2="DISPENSE_WAIT" data-source-line="38" data-uid="lnk10" id="link_DISPENSE_PILL_DISPENSE_WAIT"><path d="M608.96,765.38 C608.54,755.72 608.16,745.39 607.95,735.8 C607.62,720.58 607.7851,709.8246 608.4051,695.2446" fill="none" id="DISPENSE_PILL-to-DISPENSE_WAIT" style="stroke:#181818;stroke-width:1;"/><polygon fill="#181818" points="608.66,689.25,604.2812,698.0719,608.4476,694.2455,612.274,698.4118,608.66,689.25" style="stroke:#181818;stroke-width:1;"/><text fill="#000000" font-family="sans-serif" font-size="13" lengthAdjust="spacing" textLength="130.8379" x="608.95" y="731.8669">eKey(PIEZO_SENS) /</text></g><!--link DISPENSE_WAIT to STANDBY--><g class="link" data-entity-1="DISPENSE_WAIT" data-entity-2="STANDBY" data-source-line="30" data-uid="lnk9" id="link_DISPENSE_WAIT_STANDBY"><path d="M636.18,610.4 C641.26,601.01 645.96,590.73 648.95,580.6 C691.23,437.6 755.37,367.97 669.95,245.73 C653.6,222.34 633.9124,209.0715 607.1924,198.9715" fill="none" id="DISPENSE_WAIT-to-STANDBY" style="stroke:#181818;stroke-width:1;"/><polygon fill="#181818" points="601.58,196.85,608.5843,203.7738,606.257,198.6179,611.413,196.2906,601.58,196.85" style="stroke:#181818;stroke-width:1;"/><text fill="#000000" font-family="sans-serif" font-size="13" lengthAdjust="spacing" textLength="194.5112" x="706.95" y="421.4669">eEnter [m-&gt;pill_count &gt;= 7] /</text></g><!--link DISPENSE_PILL to DISPENSE_FAIL--><g class="link" data-entity-1="DISPENSE_PILL" data-entity-2="DISPENSE_FAIL" data-source-line="39" data-uid="lnk11" id="link_DISPENSE_PILL_DISPENSE_FAIL"><path d="M602.34,844.24 C600.75,859.42 601.32,876.65 607.95,891.01 C613.08,902.1 616.6974,907.8682 625.5974,916.5182" fill="none" id="DISPENSE_PILL-to-DISPENSE_FAIL" style="stroke:#181818;stroke-width:1;"/><polygon fill="#181818" points="629.9,920.7,626.2339,911.5589,626.3145,917.2152,620.6582,917.2958,629.9,920.7" style="stroke:#181818;stroke-width:1;"/><text fill="#000000" font-family="sans-serif" font-size="13" lengthAdjust="spacing" textLength="130.0508" x="608.95" y="887.0769">eTick [timer &gt;= 4] /</text></g><!--link DISPENSE_FAIL to DISPENSE_WAIT--><g class="link" data-entity-1="DISPENSE_FAIL" data-entity-2="DISPENSE_WAIT" data-source-line="46" data-uid="lnk12" id="link_DISPENSE_FAIL_DISPENSE_WAIT"><path d="M727.11,920.59 C734.01,911.58 740.18,901.53 743.95,891.01 C769.77,818.96 783.88,784.1 743.95,718.8 C740.01,712.36 717.5148,700.2853 688.2848,686.1953" fill="none" id="DISPENSE_FAIL-to-DISPENSE_WAIT" style="stroke:#181818;stroke-width:1;"/><polygon fill="#181818" points="682.88,683.59,689.2504,691.1012,687.384,685.7611,692.7241,683.8948,682.88,683.59" style="stroke:#181818;stroke-width:1;"/><text fill="#000000" font-family="sans-serif" font-size="13" lengthAdjust="spacing" textLength="202.4077" x="768.95" y="809.4769">eTick [count &gt;= 10] / led_off();</text></g><!--SRC=[VLLjJzim4FxUNt7QXwbTNoZR6D8GI0KwBQ83j5P26w0eJI-DryIER0V6VltETf8cRK2grDQ-k-VkUUxEznyUOJWyW_bYSdrv_gjJVCDNm2dNAE4092hKVXg4CUFeAotpK7VVfxsJkl62XHkoJN3bQx5U9zXjta__CbtSYoYgNnhqY-_JYol_OZBppdzE5jxDjN6vmfVk_6xS8xSmIDXI1jf6xNIuq0ZlXk1oWHykjG7y4Ke5aB4ayKEHSps01mugvv3ckOQN11bL0fhXIcXofdXaYYDZHPyXt2GR8JWSaWbL4oJvHZ4u6gTgz0u21TU73Zd1I8E8O5lUNOmST8omOYf3heWtfWo2rBWoiQduvu1f1P6G4C0orvg0j80bGaO4AsSMy1Ki4yOtYdx2R7e9pp5BqFeolXvrEgrC5KgrNnRAX3666zyIQKXiZsD5QhchTKWLyhuIPGMdfn05YSB7LxtB_rJIAm58I-lVvBWjpuhjWaQYkkImgS63lQl1B5z0vv8JbTRoEKPCBE-Q00D5Y1mXofF4cbavj05JMcIPyNhWDKSbw0-vcfDGf1cfdI8dfPcEIqj5cP3aWZ8o_fGEPRFcb8krilbAaH7U4esy3PhA2RHJmwri-pGUx3hjJLhjtaXnwSrlfzVpgNytyHRRGJlixPDV3po9J38bcKou-Z8frZ98OOEOgR9eqxXqJnF84iYD4auVqzM236IX71MybqnPisOfVP_2-6JVfcZfVjyQjHWK7FJxsrsmQzLWujQRpRPzwQ3FJk7BU4mTMJMKuN8_oDx6l4-7PrjS4-TulwztKrwODgEaIonbrvW2V4BvOdZzDAPU2WLV5Nl5T5CaHLeV1Cloo059jevRaUpq1DJY3Y0EdiWVwQo4jfkewrhSZ04T75ivLAyKk5JTPg90K99rBKiwtzAoGNcRbbKGjvIQvw_syQqt_NtZp-dSl1jlUNsRU6sQVtv3goAbQlyuZcYc7Ks3YXw6_qGv-dITszKaO8KQwRqoQoa2zr3HQbSrvicUeEjSbcbMkq2iVPHIo6vl0Ax3ciGswcg-o0EYUNSOglXkP7OkMdakjdVPtOTsI6hxvXNs2YGleX9hjLjEgFJknp6zjBrgWHJlu95hlT5_]--></g></svg>